<svg width="34" height="34" viewBox="0 0 34 34" fill="none" xmlns="http://www.w3.org/2000/svg">
<rect width="34" height="34" rx="8" fill="#FF8D0B"/>
<path d="M24.1632 25.52C21.4912 25.52 18.5312 25.36 15.2832 25.04V21.8C18.8192 22.04 21.4592 22.16 23.2032 22.16C23.5712 22.16 23.8592 22.056 24.0672 21.848C24.2912 21.624 24.4032 21.328 24.4032 20.96V19.76C24.4032 18.8 23.9232 18.32 22.9632 18.32H16.0032V8.48001H27.5232V11.84H20.3232V14.96H24.1632C25.7312 14.96 26.8832 15.32 27.6192 16.04C28.3552 16.744 28.7232 17.824 28.7232 19.28V20.96C28.7232 22.528 28.3552 23.68 27.6192 24.416C26.8832 25.152 25.7312 25.52 24.1632 25.52Z" fill="white"/>
<path d="M9.23686 25.28V12.2L6.47686 13.16L5.27686 10.4L9.71686 8.48001H13.5569V25.28H9.23686Z" fill="white"/>
</svg>
