<svg width="140" height="179" viewBox="0 0 140 179" fill="none" xmlns="http://www.w3.org/2000/svg">
<g clip-path="url(#clip0_1882_14503)">
<rect width="140" height="179" rx="12" fill="#3D4153"/>
<path d="M160.717 225.185C158.411 202.233 153.958 179.475 149.788 156.75C146.928 141.138 138.259 129.719 123.058 123.913C114.242 120.539 105.471 117.073 96.7459 113.46C88.7438 110.142 86.6981 107.279 87.4101 98.5416C87.7718 94.1103 88.3595 88.3042 91.1851 85.7705C96.7345 80.8052 98.0908 74.6809 99.5827 68.2613C99.8201 67.216 99.594 65.8412 99.0854 64.8867C96.4633 59.9669 96.825 54.8766 99.3341 50.3772C101.854 45.855 102.035 41.776 99.8088 37.3334C99.0176 35.754 97.9665 34.2088 97.6274 32.5272C96.7119 28.0164 93.8638 25.3122 90.0436 23.2897C87.8509 22.1194 85.8278 20.4719 83.5109 19.7447C77.9727 18.0063 72.4685 15.5748 66.4218 18.0631C64.1726 18.9834 61.6974 19.6083 59.2674 19.8356C49.2423 20.7787 42.8 26.6416 41.8054 36.6289C41.2176 42.5145 41.4211 48.4797 41.195 54.3994C41.082 57.5013 42.8 61.194 38.4599 63.0915C37.94 63.3187 37.6348 65.114 37.9174 65.9548C39.8049 71.6927 39.3641 78.5214 45.456 82.3391C45.9307 82.6345 46.2359 83.6003 46.2359 84.2479C46.2924 92.0878 46.3602 99.9278 46.1794 107.768C46.1454 109.245 45.4447 111.301 44.3484 112.085C33.2721 119.925 22.5462 128.504 10.7127 135.003C-1.56156 141.729 -8.69332 151.069 -10.2191 164.749C-10.9538 171.373 -11.1233 178.088 -11.0894 184.747C-10.9651 205.96 -11.9145 227.059 -15 248H13.0184C14.759 234.888 16.4995 221.742 18.2627 208.448C22.5802 214.368 26.4116 225.094 26.0387 231.252C25.7109 236.82 26.0613 242.41 26.4681 248H124.832C124.12 230.116 123.419 212.3 122.719 194.507C123.148 194.427 123.578 194.359 124.007 194.279C126.787 200.461 129.387 206.732 132.382 212.8C135.264 218.651 135.592 224.707 134.891 231.002C134.269 236.672 133.433 242.33 133.038 248H159.485C160.593 240.331 161.474 232.672 160.717 225.185Z" fill="#262835"/>
</g>
<defs>
<clipPath id="clip0_1882_14503">
<rect width="140" height="179" rx="12" fill="white"/>
</clipPath>
</defs>
</svg>
