<svg width="652" height="561" viewBox="0 0 652 561" fill="none" xmlns="http://www.w3.org/2000/svg">
<path d="M0 156.5L54 172.5L715.832 -9L683.5 -65L0 156.5Z" fill="url(#paint0_linear_2054_11282)"/>
<path d="M179.5 226.5C131.5 215.167 33.6 192.3 26 191.5L722.5 -9L800.5 76L179.5 226.5Z" fill="url(#paint1_linear_2054_11282)"/>
<path d="M152.5 206L751 61.5L743.5 495.5L152.5 560.5V206Z" fill="url(#paint2_linear_2054_11282)"/>
<path d="M173 262.475L326.824 218L330 560H173L173 262.475Z" fill="#3992F8"/>
<path d="M811 59L152 215.5V315L806.5 182L811 59Z" fill="url(#paint3_linear_2054_11282)"/>
<path d="M735 -33.5L26.5 173V193L735 -5V-33.5Z" fill="#C8ECFC"/>
<line x1="113" y1="151" x2="113" y2="166" stroke="#0419B2" stroke-width="2" stroke-linecap="round"/>
<line x1="214" y1="122" x2="214" y2="137" stroke="#0419B2" stroke-width="2" stroke-linecap="round"/>
<line x1="330" y1="89" x2="330" y2="104" stroke="#0419B2" stroke-width="2" stroke-linecap="round"/>
<line x1="448" y1="55" x2="448" y2="70" stroke="#0419B2" stroke-width="2" stroke-linecap="round"/>
<line x1="566" y1="21" x2="566" y2="36" stroke="#0419B2" stroke-width="2" stroke-linecap="round"/>
<path d="M329.866 155.119L340 152V558H328L329.866 155.119Z" fill="#0D69FA"/>
<path d="M340 151.5L348 158.805L352 558.5H340V151.5Z" fill="#002ACA"/>
<path d="M438.5 129.176L447 125.5V554.5H435L438.5 129.176Z" fill="#0D69FA"/>
<path d="M447 125.5L454 133.376L459 554.5H447L447 125.5Z" fill="#002ACA"/>
<rect x="561" y="105" width="12" height="451" fill="#0D69FA"/>
<path d="M573 105L583 116.45L585 556H573V105Z" fill="#002ACA"/>
<path d="M84 198.668L99 193L116 198.668V557H84V198.668Z" fill="#071BAC"/>
<path d="M84 198.668L99 193V557H84V198.668Z" fill="#A8E5FA"/>
<path d="M84 197.5L99 193V219L84 223.5V197.5Z" fill="#031A70"/>
<path d="M157 179.026L172 173L189 179.026V560H157V179.026Z" fill="#071BAC"/>
<path d="M157 179.026L172 173V560H157V179.026Z" fill="#A8E5FA"/>
<path d="M157 177.5L172 173V199L157 203.5V177.5Z" fill="#031A70"/>
<path d="M358 125.789L373 119L390 125.789V555H358V125.789Z" fill="#0828F0"/>
<path d="M358 125.789L373 119V555H358V125.789Z" fill="#A8E5FA"/>
<path d="M358 123.5L373 119V165.5L358 170L358 123.5Z" fill="#031A70"/>
<path d="M484 103.194L499 96L516 103.194V558H484V103.194Z" fill="#0D4FFD"/>
<path d="M484 103.194L499 96V558H484V103.194Z" fill="#A8E5FA"/>
<path d="M484 100.5L499 96V141L484 145.5V100.5Z" fill="#031A70"/>
<path d="M637 103.131L652 96V554H637V103.131Z" fill="#A8E5FA"/>
<path d="M536 191C536 190.111 536.587 189.329 537.44 189.08L545.44 186.747C546.72 186.373 548 187.333 548 188.667V210.614C548 211.448 547.483 212.194 546.702 212.487L538.702 215.487C537.395 215.977 536 215.01 536 213.614V191Z" fill="#99ECFC"/>
<path d="M604 175C604 174.111 604.587 173.329 605.44 173.08L613.44 170.747C614.72 170.373 616 171.333 616 172.667V194.614C616 195.448 615.483 196.194 614.702 196.487L606.702 199.487C605.395 199.977 604 199.01 604 197.614V175Z" fill="#99ECFC"/>
<path d="M472 202C472 201.111 472.587 200.329 473.44 200.08L481.44 197.747C482.72 197.373 484 198.333 484 199.667V221.614C484 222.448 483.483 223.194 482.702 223.487L474.702 226.487C473.395 226.977 472 226.01 472 224.614V202Z" fill="#99ECFC"/>
<path d="M472 380.437C472 379.843 472.264 379.28 472.72 378.9L480.72 372.234C482.022 371.148 484 372.074 484 373.77V404.5C484 405.605 483.105 406.5 482 406.5H474C472.895 406.5 472 405.605 472 404.5V380.437Z" fill="#99ECFC"/>
<path d="M411 382.937C411 382.343 411.264 381.78 411.72 381.4L419.72 374.734C421.022 373.648 423 374.574 423 376.27V407C423 408.105 422.105 409 421 409H413C411.895 409 411 408.105 411 407V382.937Z" fill="#99ECFC"/>
<path d="M411 297.937C411 297.343 411.264 296.78 411.72 296.4L419.72 289.734C421.022 288.648 423 289.574 423 291.27V322C423 323.105 422.105 324 421 324H413C411.895 324 411 323.105 411 322V297.937Z" fill="#99ECFC"/>
<path d="M393 297.679C393 296.944 393.403 296.269 394.049 295.919L402.049 291.595C403.382 290.875 405 291.84 405 293.355V312C405 313.105 404.105 314 403 314H395C393.895 314 393 313.105 393 312V297.679Z" fill="#99ECFC"/>
<path d="M393 388.673C393 388.03 393.309 387.426 393.831 387.05L401.831 381.284C403.153 380.331 405 381.276 405 382.907V409C405 410.105 404.105 411 403 411H395C393.895 411 393 410.105 393 409V388.673Z" fill="#99ECFC"/>
<path d="M536 280C536 279.111 536.587 278.329 537.44 278.08L545.44 275.747C546.72 275.373 548 276.333 548 277.667V299.614C548 300.448 547.483 301.194 546.702 301.487L538.702 304.487C537.395 304.977 536 304.01 536 302.614V280Z" fill="#99ECFC"/>
<path d="M604 272C604 271.111 604.587 270.329 605.44 270.08L613.44 267.747C614.72 267.373 616 268.333 616 269.667V291.614C616 292.448 615.483 293.194 614.702 293.487L606.702 296.487C605.395 296.977 604 296.01 604 294.614V272Z" fill="#99ECFC"/>
<path d="M536 375.236C536 374.479 536.428 373.786 537.106 373.447L545.106 369.447C546.435 368.782 548 369.749 548 371.236V400.5C548 401.605 547.105 402.5 546 402.5H538C536.895 402.5 536 401.605 536 400.5L536 375.236Z" fill="#99ECFC"/>
<path d="M604 369C604 368.111 604.587 367.329 605.44 367.08L613.44 364.747C614.72 364.373 616 365.333 616 366.667V388.614C616 389.448 615.483 390.194 614.702 390.487L606.702 393.487C605.395 393.977 604 393.01 604 391.614V369Z" fill="#99ECFC"/>
<path d="M621 267C621 266.111 621.587 265.329 622.44 265.08L630.44 262.747C631.72 262.373 633 263.333 633 264.667V286.614C633 287.448 632.483 288.194 631.702 288.487L623.702 291.487C622.395 291.977 621 291.01 621 289.614V267Z" fill="#99ECFC"/>
<path d="M240.166 258.134L226.029 239.819L241.365 215.905L231.152 218.41L216.52 241.942L217.349 221.794L209.567 223.702L207.824 266.063L215.605 264.156L216.502 242.377L229.134 260.839L240.166 258.134Z" fill="#0874E1"/>
<path d="M262.68 252.61C268.158 251.267 273.326 245.384 273.62 238.219C273.956 230.063 268.865 228.761 268.865 228.761C268.865 228.761 273.06 226.097 272.976 218.857C272.829 208.362 262.529 210.72 262.529 210.72L242.494 215.632L240.751 257.973L262.68 252.61ZM249.572 220.7L259.587 218.244C259.587 218.244 265.047 216.623 264.83 221.891C264.644 226.418 261.206 227.557 260.091 227.918L249.164 230.597L249.572 220.7ZM257.533 247.049L248.395 249.29L248.886 237.353L260.164 234.588C260.164 234.588 265.848 233.437 265.616 239.079C265.384 244.72 261.099 246.175 257.533 247.049Z" fill="#0874E1"/>
<path d="M296.492 218.814C298.748 218.261 308.279 217.586 307.822 228.686C307.339 240.426 297.599 244.065 297.599 244.065L274.945 249.62L275.228 242.754L293.456 238.285C298.718 236.995 298.93 231.142 298.93 231.142C299.194 224.719 292.94 226.508 292.94 226.508L285.959 228.22C282.756 229.005 274.551 229.671 274.958 219.767C275.449 207.845 285.699 205.022 285.699 205.022L306.442 199.936L306.162 206.734L289.131 210.909C283.636 212.257 283.519 217.197 283.519 217.197C283.519 217.197 283.367 222.026 288.132 220.857L296.492 218.814Z" fill="#0874E1"/>
<g filter="url(#filter0_d_2054_11282)">
<path d="M312.666 314.229C312.452 312.063 312.104 309.931 311.622 307.848C311.622 307.848 311.619 307.799 311.618 307.781C311.078 305.475 310.387 303.229 309.551 301.056C307.834 296.616 305.559 292.492 302.78 288.777C294.665 277.899 283.299 271.644 271.862 270.527C271.862 270.527 245.688 267.28 232.879 284.52C232.651 284.843 232.429 285.17 232.213 285.509C223.807 290.375 216.54 297.375 211.197 305.756C207.283 311.935 204.762 318.819 203.853 325.81C203.78 326.398 203.59 328.122 203.585 328.306C203.228 332.265 203.236 336.2 203.611 340.055C203.625 340.248 203.638 340.44 203.654 340.656C204.118 345.329 205.183 349.836 206.821 354.062C208.538 358.502 210.812 362.626 213.592 366.341C221.707 377.219 233.073 383.468 244.51 384.591C244.51 384.591 270.684 387.838 283.492 370.592C283.721 370.269 283.943 369.942 284.165 369.608C292.568 364.74 299.832 357.74 305.175 349.362C307.497 345.666 309.346 341.716 310.668 337.628C313.487 328.962 313.316 320.182 312.666 314.229ZM229.243 291.25C233.844 288.008 238.738 285.316 243.814 283.232C251.51 279.922 259.512 277.889 267.499 277.216C283.983 275.95 297.839 281.48 305.009 292.876L305.191 293.167C305.222 293.214 305.234 293.274 305.224 293.336C305.214 293.398 305.183 293.457 305.137 293.501C305.041 293.589 304.866 293.559 304.726 293.448C304.587 293.338 304.588 293.258 304.51 293.177C298.811 286.054 290.176 281.59 279.866 280.087C269.555 278.584 257.38 280.166 244.896 285.197C239.07 287.462 233.475 290.544 228.282 294.35C228.539 293.305 228.86 292.269 229.243 291.25ZM227.551 301.255C232.637 297.702 237.969 294.607 243.477 292.011C261.728 283.357 278.567 282.113 291.063 286.579C299.739 289.673 306.319 295.53 309.807 303.514C309.856 303.626 309.911 303.73 309.955 303.842C309.953 303.855 309.954 303.867 309.958 303.878C310.117 304.277 310 304.479 309.817 304.518C309.769 304.53 309.72 304.529 309.676 304.515C309.632 304.501 309.594 304.474 309.566 304.437L309.434 304.167C306.254 298.192 301.365 293.521 295.339 290.7C282.48 284.47 263.861 285.135 243.625 294.985C238.205 297.699 232.96 300.868 227.948 304.457C227.933 304.247 227.853 304.038 227.821 303.832C227.689 302.98 227.609 302.113 227.579 301.237L227.551 301.255ZM286.999 363.878C282.408 367.116 277.524 369.803 272.456 371.877C264.762 375.189 256.762 377.223 248.777 377.898C232.287 379.165 218.431 373.635 211.267 362.238L211.079 361.949C211.049 361.901 211.038 361.841 211.048 361.779C211.058 361.718 211.088 361.659 211.133 361.614C211.229 361.521 211.41 361.555 211.544 361.667L211.76 361.938C217.459 369.056 226.1 373.524 236.398 375.029C246.798 376.52 258.89 374.95 271.374 369.912C277.202 367.65 282.799 364.57 287.994 360.764C287.738 361.808 287.415 362.842 287.027 363.859L286.999 363.878ZM288.69 353.872C283.605 357.428 278.274 360.523 272.764 363.117C254.513 371.77 237.674 373.014 225.178 368.549C216.508 365.453 209.922 359.597 206.434 351.613L206.286 351.285C206.288 351.273 206.287 351.26 206.283 351.249C206.13 350.849 206.241 350.648 206.424 350.61C206.473 350.6 206.521 350.603 206.565 350.618C206.609 350.633 206.647 350.66 206.675 350.696C206.717 350.785 206.765 350.872 206.808 350.967C209.991 356.939 214.879 361.609 220.902 364.434C233.761 370.657 252.38 369.998 272.616 360.148C278.044 357.415 283.294 354.222 288.306 350.606C288.322 350.823 288.396 351.026 288.434 351.238C288.572 352.098 288.657 352.974 288.689 353.86L288.69 353.872ZM311.951 315.546C311.869 315.563 311.788 315.519 311.721 315.418C311.654 315.316 311.668 315.252 311.638 315.173C309.817 309.786 306.519 305.232 302.109 302.01C289.492 292.583 267.839 292.344 245.731 302.696C244.046 303.487 242.408 304.335 240.802 305.219C237.397 307.091 234.094 309.197 230.917 311.521C231.694 312.669 232.593 313.716 233.599 314.646C240.361 309.809 247.667 305.994 255.258 303.335C260.309 301.551 265.463 300.341 270.621 299.728C284.058 298.146 296.029 300.998 303.672 307.525C308.575 311.715 311.699 317.404 312.273 324.428C312.287 324.62 312.3 324.812 312.315 325.029C312.331 325.245 312.339 325.371 312.352 325.545C312.354 325.589 312.347 325.635 312.33 325.679C312.314 325.722 312.289 325.763 312.257 325.797C312.225 325.832 312.187 325.86 312.146 325.879C312.105 325.899 312.061 325.909 312.018 325.909C311.969 325.915 311.921 325.908 311.878 325.888C311.836 325.868 311.801 325.836 311.777 325.795C311.765 325.621 311.712 325.462 311.683 325.297C310.572 319.995 308.016 315.318 304.299 311.782C299.446 307.107 292.658 304.172 284.628 303.22C275.067 302.094 263.742 303.782 251.868 308.72C246.539 310.904 241.372 313.637 236.451 316.875C237.843 317.739 239.345 318.426 240.929 318.923C246.672 315.019 252.856 312.007 259.251 309.998C272.702 305.712 285.636 305.914 295.143 309.783C298.653 311.155 301.81 313.21 304.463 315.851C307.89 319.225 309.998 323.834 310.463 328.971C310.708 331.872 310.437 334.867 309.664 337.811C309.671 337.907 309.607 338.018 309.578 338.122C309.55 338.226 309.425 338.331 309.347 338.324C309.269 338.316 309.195 338.203 309.184 338.047C309.173 337.891 309.212 337.846 309.229 337.745C309.551 335.428 309.543 333.12 309.204 330.897C308.56 326.785 306.831 323.08 304.198 320.169C303.635 319.53 303.036 318.926 302.403 318.362C292.923 309.841 275.187 308.08 257.18 315.432C253.868 316.684 250.622 318.19 247.468 319.935C250.455 319.962 253.493 319.446 256.449 318.41C256.449 318.41 261.375 316.687 263.399 315.805C263.807 315.645 264.436 315.414 264.724 315.341L264.871 315.309C272.098 313.108 279.489 312.465 286.561 313.424C286.561 313.424 297.47 314.843 302.712 322.095C302.712 322.095 303.855 323.394 302.475 325.803C301.187 327.969 299.754 330.051 298.187 332.031C296.651 333.907 293.951 336.59 293.951 336.59C291.436 338.963 288.795 341.18 286.045 343.228L286.042 343.186L285.416 343.642L285.419 343.69C285.546 343.87 285.666 344.052 285.78 344.223C286.177 344.869 286.54 345.541 286.865 346.236C281.976 349.775 276.814 352.825 271.461 355.339C250.053 365.536 229.122 366.046 216.273 357.741C210.162 353.916 205.904 347.708 204.29 340.271C204.281 340.139 204.23 340.015 204.204 339.887C204.177 339.759 204.276 339.634 204.363 339.597C204.45 339.56 204.526 339.629 204.587 339.726L204.676 339.976C206.501 345.36 209.798 349.914 214.206 353.138C226.822 362.566 248.475 362.798 270.589 352.452C272.268 351.656 273.906 350.808 275.512 349.924C278.919 348.053 282.224 345.949 285.403 343.626C284.622 342.479 283.721 341.43 282.715 340.497C275.955 345.339 268.649 349.154 261.056 351.807C256.005 353.593 250.852 354.805 245.693 355.421C232.262 356.995 220.29 354.144 212.648 347.622C207.74 343.434 204.616 337.745 204.041 330.721C204.027 330.529 204.014 330.33 203.999 330.12C203.984 329.91 203.975 329.772 203.962 329.597C203.961 329.554 203.969 329.51 203.986 329.467C204.002 329.425 204.026 329.386 204.058 329.352C204.089 329.318 204.125 329.291 204.166 329.272C204.206 329.252 204.248 329.242 204.29 329.241C204.34 329.232 204.39 329.238 204.434 329.258C204.477 329.278 204.513 329.311 204.537 329.353C204.549 329.527 204.602 329.687 204.638 329.85C205.745 335.152 208.299 339.831 212.016 343.366C216.868 348.036 223.662 350.976 231.692 351.921C241.253 353.054 252.578 351.366 264.44 346.424C269.771 344.25 274.941 341.526 279.865 338.298C278.473 337.434 276.971 336.747 275.387 336.25C269.645 340.15 263.464 343.16 257.071 345.167C243.62 349.453 230.68 349.258 221.173 345.389C217.665 344.011 214.508 341.955 211.852 339.316C208.426 335.941 206.319 331.332 205.853 326.196C205.611 323.296 205.882 320.304 206.652 317.362L206.738 317.051C206.801 316.927 206.891 316.841 206.974 316.842C207.058 316.842 207.126 316.962 207.131 317.119C207.136 317.277 207.098 317.322 207.087 317.422C206.768 319.739 206.776 322.046 207.111 324.27C207.756 328.383 209.485 332.09 212.119 335.004C212.677 335.635 213.275 336.233 213.913 336.811C223.393 345.332 241.135 347.091 259.136 339.734C262.447 338.483 265.694 336.977 268.847 335.231C265.861 335.201 262.822 335.717 259.866 336.756C259.866 336.756 254.941 338.48 252.922 339.36C252.508 339.515 251.879 339.753 251.591 339.826L251.45 339.856C244.224 342.061 236.833 342.705 229.761 341.747C229.761 341.747 218.852 340.328 213.61 333.071C213.61 333.071 212.461 331.778 213.835 329.365C215.127 327.199 216.562 325.117 218.128 323.135C219.665 321.26 222.365 318.576 222.365 318.576C224.88 316.203 227.521 313.984 230.27 311.933L230.273 311.975L230.905 311.523C230.905 311.507 230.904 311.491 230.902 311.475C230.782 311.294 230.656 311.113 230.542 310.942C230.144 310.294 229.782 309.62 229.456 308.923C234.345 305.386 239.508 302.338 244.861 299.826C266.268 289.629 287.205 289.118 300.048 297.418C306.158 301.248 310.415 307.456 312.031 314.894C312.041 315.027 312.085 315.145 312.106 315.275C312.127 315.405 312.038 315.503 311.95 315.534L311.951 315.546Z" fill="white"/>
</g>
<path d="M708.5 -60.5L1.5 146L0 156.5L708.5 -41.5V-60.5Z" fill="#C8ECFC"/>
<defs>
<filter id="filter0_d_2054_11282" x="203.323" y="270.284" width="111.742" height="120.55" filterUnits="userSpaceOnUse" color-interpolation-filters="sRGB">
<feFlood flood-opacity="0" result="BackgroundImageFix"/>
<feColorMatrix in="SourceAlpha" type="matrix" values="0 0 0 0 0 0 0 0 0 0 0 0 0 0 0 0 0 0 127 0" result="hardAlpha"/>
<feOffset dx="2" dy="6"/>
<feComposite in2="hardAlpha" operator="out"/>
<feColorMatrix type="matrix" values="0 0 0 0 0.0235294 0 0 0 0 0.160784 0 0 0 0 0.745098 0 0 0 1 0"/>
<feBlend mode="normal" in2="BackgroundImageFix" result="effect1_dropShadow_2054_11282"/>
<feBlend mode="normal" in="SourceGraphic" in2="effect1_dropShadow_2054_11282" result="shape"/>
</filter>
<linearGradient id="paint0_linear_2054_11282" x1="20" y1="163.5" x2="696.5" y2="-55" gradientUnits="userSpaceOnUse">
<stop stop-color="#1217AD"/>
<stop offset="1" stop-color="#0733F6"/>
</linearGradient>
<linearGradient id="paint1_linear_2054_11282" x1="269.5" y1="166" x2="673.5" y2="51.5" gradientUnits="userSpaceOnUse">
<stop stop-color="#0713A5"/>
<stop offset="1" stop-color="#042EFF"/>
</linearGradient>
<linearGradient id="paint2_linear_2054_11282" x1="405" y1="320.5" x2="652.5" y2="270.5" gradientUnits="userSpaceOnUse">
<stop stop-color="#1F3CFF"/>
<stop offset="1" stop-color="#2A86FF"/>
</linearGradient>
<linearGradient id="paint3_linear_2054_11282" x1="165" y1="262" x2="682" y2="157" gradientUnits="userSpaceOnUse">
<stop offset="0.326923" stop-color="#0D1B83"/>
<stop offset="1" stop-color="#0552FA"/>
</linearGradient>
</defs>
</svg>
