<svg width="390" height="62" viewBox="0 0 390 62" fill="none" xmlns="http://www.w3.org/2000/svg">
<path d="M22.9657 46.068C15.9697 47.08 8.88572 47.432 2.46172 47.476V42.46C4.74972 42.46 7.12572 42.372 9.54572 42.284V34.32C6.11372 33.308 3.78172 30.448 3.78172 26.62V19.492C3.78172 14.696 7.43372 11.44 12.2737 11.44C17.1137 11.44 20.7657 14.696 20.7657 19.492V26.62C20.7657 30.448 18.4337 33.308 15.0017 34.32V41.932C17.6417 41.756 20.3257 41.448 22.9657 41.052V11.176H28.4217V26.576H31.2377V11H36.7817V49.456H31.2377V31.68H28.4217V49.104H22.9657V46.068ZM9.06172 26.444C9.06172 28.512 10.4257 29.832 12.2737 29.832C14.1217 29.832 15.4857 28.512 15.4857 26.444V19.668C15.4857 17.6 14.1217 16.28 12.2737 16.28C10.4257 16.28 9.06172 17.6 9.06172 19.668V26.444Z" fill="white"/>
<g clip-path="url(#clip0_1856_14403)">
<path fill-rule="evenodd" clip-rule="evenodd" d="M149.394 18C149.394 24.9401 151.151 31.4653 154.238 37.1465C154.784 30.1419 157.027 23.6196 160.551 18H172.123C166.488 25.8977 163.03 35.49 162.641 45.8768H148.459C142.682 38.0731 139.185 28.4443 138.964 18H149.394Z" fill="white"/>
<path fill-rule="evenodd" clip-rule="evenodd" d="M184.05 18.6573C184.05 25.5975 185.807 32.1227 188.894 37.8038C189.44 30.7993 191.683 24.277 195.207 18.6573H206.779C201.144 26.5551 197.686 36.1473 197.297 46.5342H183.115C177.338 38.7304 173.841 29.1016 173.62 18.6573H184.05Z" fill="white"/>
<path fill-rule="evenodd" clip-rule="evenodd" d="M96.7475 46.5342C96.1095 36.8285 98.684 26.947 104.471 18.6575H92.9558C90.2538 23.4841 88.7976 28.8305 88.5866 34.2172C86.2778 28.0948 85.6266 21.4794 86.6336 15.0787H77.3485C73.8345 20.9388 72.0663 27.5686 72.0437 34.2032C69.5414 26.8903 69.0155 19.0391 70.4654 11.5H59.166C57.2363 24.5016 60.3037 38.1151 68.3687 49.1711H79.7656C78.7245 43.9764 78.7843 38.6009 79.945 33.4268C80.8762 38.0293 82.6754 42.4878 85.3432 46.5342H96.7475Z" fill="white"/>
<path fill-rule="evenodd" clip-rule="evenodd" d="M118.887 38.7738C115.217 38.7738 112.684 36.0077 112.684 32.5957C112.684 29.1837 115.217 26.4176 118.887 26.4176C122.557 26.4176 125.091 29.1837 125.091 32.5957C125.091 36.0077 122.557 38.7738 118.887 38.7738ZM126.852 18.6575C126.723 19.3656 126.603 20.0752 126.494 20.7861C124.017 18.7789 120.914 17.6401 117.539 17.6401C109.339 17.6401 102.869 24.2736 102.869 32.5957C102.869 40.9178 109.339 47.5513 117.539 47.5513C120.914 47.5513 124.017 46.4126 126.494 44.4052C126.603 45.1162 126.723 45.8258 126.852 46.534H136.177C134.493 37.3261 134.493 27.8654 136.177 18.6575H126.852Z" fill="white"/>
<mask id="mask0_1856_14403" style="mask-type:luminance" maskUnits="userSpaceOnUse" x="204" y="17" width="32" height="31">
<path fill-rule="evenodd" clip-rule="evenodd" d="M204.842 17.6401H235.393V47.5511H204.842V17.6401Z" fill="white"/>
</mask>
<g mask="url(#mask0_1856_14403)">
<path fill-rule="evenodd" clip-rule="evenodd" d="M214.529 29.3699C215.38 26.517 217.726 25.1077 220.426 25.1077C223.127 25.1077 225.355 26.5934 226.211 29.3699H214.529ZM220.408 17.6401C210.556 17.6401 204.842 24.822 204.842 32.4566C204.842 40.7308 210.898 47.5511 221.528 47.5511C226.099 47.5511 230.706 46.2512 233.602 44.8144V36.6098C230.677 38.1649 226.677 39.5452 222.836 39.5452C218.261 39.5452 215.382 37.6602 214.559 34.8626H235.314C236.167 24.6174 230.043 17.6401 220.408 17.6401Z" fill="white"/>
</g>
</g>
<path d="M247.68 35.728H253.4V44.66C262.684 44.44 271.748 43.868 280.24 42.372V47.476C269.988 49.28 258.944 49.72 247.68 49.896V35.728ZM246.36 22.264C246.36 15.928 251.376 11.44 257.58 11.44C263.784 11.44 268.8 15.928 268.8 22.264C268.8 28.6 263.784 33.088 257.58 33.088C251.376 33.088 246.36 28.6 246.36 22.264ZM251.904 22.264C251.904 25.872 254.368 28.16 257.58 28.16C260.792 28.16 263.256 25.872 263.256 22.264C263.256 18.656 260.792 16.368 257.58 16.368C254.368 16.368 251.904 18.656 251.904 22.264ZM274.08 38.368V11H279.8V38.368H274.08ZM285.757 42.68C294.117 41.448 302.037 34.892 302.037 21.472V17.072H286.637V11.88H307.757V21.472C307.757 36.432 298.869 46.552 285.757 48.136V42.68ZM313.477 49.456V11H319.197V25.96H323.597V31.416H319.197V49.456H313.477ZM338.134 34.32V42.592C342.138 42.46 346.098 42.24 350.014 41.888V34.32H338.134ZM326.034 48.136V42.856C328.19 42.856 330.39 42.812 332.59 42.768V32.604C329.422 30.624 327.354 27.104 327.354 23.1C327.354 16.896 332.37 11.88 338.574 11.88H349.574C355.778 11.88 360.794 16.896 360.794 23.1C360.794 27.104 358.726 30.624 355.558 32.604V41.272C357.802 40.964 360.002 40.612 362.114 40.216V45.496C350.982 47.608 338.178 48.048 326.034 48.136ZM332.898 23.1C332.898 26.488 335.538 29.216 338.926 29.216H349.222C352.61 29.216 355.25 26.488 355.25 23.1C355.25 19.712 352.61 16.984 349.222 16.984H338.926C335.538 16.984 332.898 19.712 332.898 23.1ZM373.658 36.96C373.658 32.56 373.878 30.228 377.398 27.456C380.214 25.344 381.314 23.848 381.314 21.472C381.314 18.7 379.598 16.676 376.518 16.676C373.394 16.676 371.678 18.876 371.59 22H365.87C365.87 15.356 370.402 11.66 376.518 11.66C382.238 11.66 387.078 14.96 387.078 21.472C387.078 25.784 384.966 28.204 381.446 30.976C379.554 32.428 378.938 33.748 378.938 36.96V37.84H373.658V36.96ZM373.086 47.52V40.92H379.686V47.124C377.618 47.388 375.154 47.52 373.086 47.52Z" fill="white"/>
<defs>
<clipPath id="clip0_1856_14403">
<rect width="180" height="39" fill="white" transform="translate(57 11.5)"/>
</clipPath>
</defs>
</svg>
