<svg width="744" height="136" viewBox="0 0 744 136" fill="none" xmlns="http://www.w3.org/2000/svg">
<path d="M27.3356 18.2C20.5676 27.032 15.5756 38.024 12.8396 50.36H5.73562C8.56762 37.784 14.2316 26.936 20.2796 18.2H1.65562V12.44H27.3356V18.2ZM32.3837 48.584C32.3837 54.776 27.4877 57.56 24.7037 58.04V54.92C26.6237 54.296 28.4477 52.76 28.7837 50.6C27.3917 50.792 25.9037 50.84 24.7037 50.84V43.16H32.3837V48.584ZM38.4144 24.104C38.4144 16.424 43.9824 11.72 51.3264 11.72C58.6704 11.72 64.2384 16.424 64.2384 24.104V38.696C64.2384 46.376 58.6704 51.08 51.3264 51.08C43.9824 51.08 38.4144 46.376 38.4144 38.696V24.104ZM44.7504 38.696C44.7504 42.92 47.2944 45.32 51.3264 45.32C55.3584 45.32 57.9024 42.92 57.9024 38.696V24.104C57.9024 19.88 55.3584 17.48 51.3264 17.48C47.2944 17.48 44.7504 19.88 44.7504 24.104V38.696ZM69.8081 24.104C69.8081 16.424 75.3761 11.72 82.7201 11.72C90.0641 11.72 95.6321 16.424 95.6321 24.104V38.696C95.6321 46.376 90.0641 51.08 82.7201 51.08C75.3761 51.08 69.8081 46.376 69.8081 38.696V24.104ZM76.1441 38.696C76.1441 42.92 78.6881 45.32 82.7201 45.32C86.7521 45.32 89.2961 42.92 89.2961 38.696V24.104C89.2961 19.88 86.7521 17.48 82.7201 17.48C78.6881 17.48 76.1441 19.88 76.1441 24.104V38.696ZM101.202 24.104C101.202 16.424 106.77 11.72 114.114 11.72C121.458 11.72 127.026 16.424 127.026 24.104V38.696C127.026 46.376 121.458 51.08 114.114 51.08C106.77 51.08 101.202 46.376 101.202 38.696V24.104ZM107.538 38.696C107.538 42.92 110.082 45.32 114.114 45.32C118.146 45.32 120.69 42.92 120.69 38.696V24.104C120.69 19.88 118.146 17.48 114.114 17.48C110.082 17.48 107.538 19.88 107.538 24.104V38.696ZM134.516 39.896H140.756V48.008C150.884 47.768 160.772 47.144 170.036 45.512V50.792C158.852 52.76 146.804 53.24 134.516 53.432V39.896ZM132.116 36.248V31.064H163.316V22.472H159.716V17.288H163.316V11H169.556V41.816H163.316V36.248H149.876V42.296H143.636V36.248H132.116ZM133.556 19.88C133.556 15.512 137.108 11.96 141.476 11.96H150.596C154.964 11.96 158.516 15.512 158.516 19.88C158.516 24.248 154.964 27.8 150.596 27.8H141.476C137.108 27.8 133.556 24.248 133.556 19.88ZM139.604 19.88C139.604 21.512 140.852 22.808 142.436 22.808H149.636C151.22 22.808 152.468 21.512 152.468 19.88C152.468 18.248 151.22 16.952 149.636 16.952H142.436C140.852 16.952 139.604 18.248 139.604 19.88ZM176.072 45.752C189.32 45.656 203.288 45.176 215.432 42.872V48.632C203.288 50.936 189.32 51.416 176.072 51.512V45.752ZM177.512 24.296C177.512 17.48 182.984 11.96 189.752 11.96H201.752C208.52 11.96 213.992 17.48 213.992 24.296C213.992 31.112 208.52 36.632 201.752 36.632H189.752C182.984 36.632 177.512 31.112 177.512 24.296ZM183.56 24.296C183.56 28.04 186.44 31.064 190.136 31.064H201.368C205.064 31.064 207.944 28.04 207.944 24.296C207.944 20.552 205.064 17.528 201.368 17.528H190.136C186.44 17.528 183.56 20.552 183.56 24.296ZM257.468 27.512H227.996V33.272C238.268 32.984 248.3 32.408 257.708 30.776V36.248C252.908 37.112 247.916 37.64 242.828 38.024V45.032C248.54 44.6 254.156 43.976 259.388 42.968V48.632C247.244 50.936 233.276 51.416 220.028 51.512V45.848C225.5 45.8 231.068 45.704 236.588 45.416V38.408C231.788 38.648 226.892 38.744 221.948 38.84V22.232H251.42V17.432H221.948V11.96H257.468V27.512Z" fill="white"/>
<g clip-path="url(#clip0_1921_296)">
<path d="M361.049 16H349.614V51H361.049V16Z" fill="white"/>
<path d="M386.01 31.5375L374.615 16.9874C374.378 16.6812 374.074 16.433 373.726 16.2618C373.379 16.0906 372.996 16.0011 372.608 16H365.201V51H376.646V35.6156L387.938 50.0224C388.174 50.3287 388.478 50.5769 388.826 50.7481C389.174 50.9192 389.557 51.0088 389.944 51.0099H397.441V16H386.01V31.5375Z" fill="white"/>
<path d="M420.247 40.775H412.919V26.225H427.396C427.915 26.2242 428.422 26.0659 428.848 25.7714C429.275 25.4768 429.601 25.0599 429.784 24.576L433 16H401.489V51H433V31.0388H420.247V40.775Z" fill="white"/>
<path d="M334.909 17.7083L329.032 34.5689L323.171 17.7083C322.997 17.2097 322.672 16.7774 322.241 16.4713C321.809 16.1652 321.293 16.0005 320.763 16H309.744L323.33 51H334.755L348.355 16H337.322C336.791 15.9995 336.274 16.1637 335.841 16.4699C335.409 16.7761 335.083 17.2089 334.909 17.7083Z" fill="white"/>
<path d="M305.25 16H278V27.0594H288.801V50.9951H300.236V27.0594H311.305L307.638 17.6194C307.452 17.1403 307.124 16.7289 306.697 16.4397C306.271 16.1505 305.766 15.9972 305.25 16Z" fill="white"/>
</g>
<path d="M472.062 48.488C462.078 50.84 450.894 51.464 441.342 51.56V45.992C444.126 45.944 447.006 45.896 449.982 45.752V28.616H456.222V45.32C461.55 44.888 466.974 44.12 472.062 42.92V11H478.302V27.32H483.102V33.272H478.302V52.952H472.062V48.488ZM443.262 17.528V11.96H467.742V15.8C467.742 23.192 467.166 33.992 466.302 40.232C464.286 40.616 462.126 40.856 460.062 41.096C460.974 34.616 461.502 23.192 461.502 17.528H443.262Z" fill="white"/>
<path fill-rule="evenodd" clip-rule="evenodd" d="M592.394 20.5C592.394 27.4401 594.151 33.9653 597.238 39.6465C597.784 32.6419 600.027 26.1196 603.551 20.5H615.123C609.488 28.3977 606.03 37.99 605.641 48.3768H591.459C585.682 40.5731 582.185 30.9443 581.964 20.5H592.394Z" fill="white"/>
<path fill-rule="evenodd" clip-rule="evenodd" d="M627.05 21.1574C627.05 28.0975 628.807 34.6227 631.894 40.3039C632.44 33.2993 634.683 26.777 638.207 21.1574H649.779C644.144 29.0551 640.686 38.6474 640.297 49.0342H626.115C620.338 41.2305 616.841 31.6017 616.62 21.1574H627.05Z" fill="white"/>
<path fill-rule="evenodd" clip-rule="evenodd" d="M539.748 49.0342C539.11 39.3285 541.684 29.447 547.471 21.1575H535.956C533.254 25.9841 531.798 31.3305 531.587 36.7172C529.278 30.5948 528.627 23.9794 529.634 17.5787H520.349C516.835 23.4388 515.066 30.0686 515.044 36.7032C512.541 29.3903 512.016 21.5391 513.465 14H502.166C500.236 27.0016 503.304 40.6151 511.369 51.6711H522.766C521.725 46.4764 521.784 41.1009 522.945 35.9268C523.876 40.5293 525.675 44.9878 528.343 49.0342H539.748Z" fill="white"/>
<path fill-rule="evenodd" clip-rule="evenodd" d="M561.887 41.2738C558.217 41.2738 555.684 38.5078 555.684 35.0958C555.684 31.6837 558.217 28.9177 561.887 28.9177C565.557 28.9177 568.091 31.6837 568.091 35.0958C568.091 38.5078 565.557 41.2738 561.887 41.2738ZM569.852 21.1575C569.723 21.8656 569.603 22.5752 569.494 23.2862C567.017 21.2789 563.914 20.1402 560.539 20.1402C552.339 20.1402 545.869 26.7737 545.869 35.0958C545.869 43.4179 552.339 50.0513 560.539 50.0513C563.914 50.0513 567.017 48.9126 569.494 46.9053C569.603 47.6162 569.723 48.3259 569.852 49.034H579.177C577.493 39.8261 577.493 30.3654 579.177 21.1575H569.852Z" fill="white"/>
<mask id="mask0_1921_296" style="mask-type:luminance" maskUnits="userSpaceOnUse" x="647" y="20" width="32" height="31">
<path fill-rule="evenodd" clip-rule="evenodd" d="M647.842 20.1402H678.393V50.0511H647.842V20.1402Z" fill="white"/>
</mask>
<g mask="url(#mask0_1921_296)">
<path fill-rule="evenodd" clip-rule="evenodd" d="M657.529 31.87C658.38 29.0171 660.726 27.6077 663.426 27.6077C666.127 27.6077 668.355 29.0934 669.211 31.87H657.529ZM663.408 20.1402C653.556 20.1402 647.842 27.322 647.842 34.9567C647.842 43.2308 653.898 50.0511 664.528 50.0511C669.099 50.0511 673.706 48.7513 676.603 47.3145V39.1098C673.678 40.665 669.677 42.0452 665.836 42.0452C661.261 42.0452 658.382 40.1602 657.56 37.3626H678.314C679.168 27.1174 673.043 20.1402 663.408 20.1402Z" fill="white"/>
</g>
<path d="M690.342 28.28V18.008H719.814V16.376H690.342V11.96H725.862V22.232H696.39V23.864H726.054V28.28H690.342ZM688.422 34.808V30.104H727.782V34.808H688.422ZM690.342 53.432V42.68H719.814V41.048H690.342V36.632H725.862V46.904H696.39V49.016C706.182 48.968 716.454 48.68 726.342 47.576V51.992C714.39 53.336 701.862 53.432 690.342 53.432Z" fill="white"/>
<path d="M141.523 104.96C154.771 104.96 167.587 104.864 180.883 103.376V108.944C175.315 109.568 169.795 109.952 164.323 110.192V121.952H158.083V110.384C152.611 110.528 147.091 110.528 141.523 110.528V104.96ZM143.443 100.16V80.96H178.963V98.816C166.963 99.968 155.395 100.16 143.443 100.16ZM149.491 94.784C157.315 94.688 165.043 94.496 172.915 93.968V86.336H149.491V94.784ZM208.136 121.568V100.64H203.288V95.072H208.136V80.192H214.088V121.568H208.136ZM186.44 120.512V113.6C189.704 111.056 193.16 105.152 193.16 96.512V86.432H186.92V80.96H205.448V86.432H199.208V96.512C199.208 104.384 202.664 110.192 205.928 112.448V119.168C202.712 117.632 198.776 113.648 196.328 108.512C193.928 114.272 189.8 118.736 186.44 120.512ZM216.872 121.952V80H222.92V121.952H216.872ZM231.356 108.128H237.596V116.72C247.58 116.48 257.228 115.856 266.396 114.224V119.792C255.308 121.76 243.548 122.24 231.356 122.432V108.128ZM229.436 87.584V82.304H239.756V79.04H245.996V82.304H256.316V87.584H229.436ZM229.916 97.616C229.916 93.44 233.372 89.984 237.452 89.984H248.3C252.38 89.984 255.836 93.44 255.836 97.616C255.836 101.792 252.38 105.248 248.3 105.248H237.452C233.372 105.248 229.916 101.792 229.916 97.616ZM235.964 97.616C235.964 99.104 237.02 100.16 238.412 100.16H247.34C248.732 100.16 249.788 99.104 249.788 97.616C249.788 96.128 248.732 95.072 247.34 95.072H238.412C237.02 95.072 235.964 96.128 235.964 97.616ZM259.676 110.432V80H265.916V91.376H270.716V97.136H265.916V110.432H259.676ZM273.392 114.752C286.64 114.656 300.608 114.176 312.752 111.872V117.632C300.608 119.936 286.64 120.416 273.392 120.512V114.752ZM274.832 93.296C274.832 86.48 280.304 80.96 287.072 80.96H299.072C305.84 80.96 311.312 86.48 311.312 93.296C311.312 100.112 305.84 105.632 299.072 105.632H287.072C280.304 105.632 274.832 100.112 274.832 93.296ZM280.88 93.296C280.88 97.04 283.76 100.064 287.456 100.064H298.688C302.384 100.064 305.264 97.04 305.264 93.296C305.264 89.552 302.384 86.528 298.688 86.528H287.456C283.76 86.528 280.88 89.552 280.88 93.296ZM354.788 96.512H325.316V102.272C335.588 101.984 345.62 101.408 355.028 99.776V105.248C350.228 106.112 345.236 106.64 340.148 107.024V114.032C345.86 113.6 351.476 112.976 356.708 111.968V117.632C344.564 119.936 330.596 120.416 317.348 120.512V114.848C322.82 114.8 328.388 114.704 333.908 114.416V107.408C329.108 107.648 324.212 107.744 319.268 107.84V91.232H348.74V86.432H319.268V80.96H354.788V96.512ZM375.025 111.056H404.497V109.184H375.025V104.576H410.545V115.472H381.073V117.824C390.865 117.776 401.137 117.488 411.025 116.384V120.992C399.073 122.336 386.545 122.432 375.025 122.432V111.056ZM373.105 102.08V97.184H412.465V102.08H373.105ZM374.545 95.264V90.464C380.833 90.464 388.561 88.64 389.569 85.76H375.025V80.96H410.545V85.76H396.001C397.009 88.64 404.737 90.464 411.025 90.464V95.264C404.833 95.264 396.385 93.44 392.785 89.888C389.185 93.44 380.737 95.264 374.545 95.264ZM448.261 121.952V110.72H440.101V105.152H448.261V94.4H441.445C440.341 109.088 430.981 118.88 417.541 120.512V114.56C426.661 113.216 435.301 106.064 435.301 91.424V86.624H418.501V80.96H441.541V88.832H448.261V80H454.501V121.952H448.261ZM461.017 114.752C466.489 114.704 472.057 114.608 477.577 114.32V105.968C472.777 106.208 467.881 106.304 462.937 106.4V80.768H468.985V87.488H492.409V80.768H498.457V103.856C493.705 104.672 488.809 105.2 483.817 105.584V113.936C489.529 113.504 495.145 112.88 500.377 111.872V117.632C488.233 119.936 474.265 120.416 461.017 120.512V114.752ZM468.985 100.736C477.001 100.496 484.873 100.112 492.409 99.2V92.96H468.985V100.736ZM527.629 121.568V99.68H522.541V94.112H527.629V80.192H533.581V121.568H527.629ZM505.933 120.512V113.312C509.197 110.72 512.653 104.48 512.653 95.552V80.72H518.701V95.552C518.701 103.712 522.157 109.856 525.421 112.16V119.168C522.157 117.536 518.269 113.456 515.821 108.224C513.421 114.08 509.341 118.64 505.933 120.512ZM536.365 121.952V80H542.413V121.952H536.365ZM562.13 105.44V114.464C566.498 114.32 570.818 114.08 575.09 113.696V105.44H562.13ZM548.93 120.512V114.752C551.282 114.752 553.682 114.704 556.082 114.656V103.568C552.626 101.408 550.37 97.568 550.37 93.2C550.37 86.432 555.842 80.96 562.61 80.96H574.61C581.378 80.96 586.85 86.432 586.85 93.2C586.85 97.568 584.594 101.408 581.138 103.568V113.024C583.586 112.688 585.986 112.304 588.29 111.872V117.632C576.146 119.936 562.178 120.416 548.93 120.512ZM556.418 93.2C556.418 96.896 559.298 99.872 562.994 99.872H574.226C577.922 99.872 580.802 96.896 580.802 93.2C580.802 89.504 577.922 86.528 574.226 86.528H562.994C559.298 86.528 556.418 89.504 556.418 93.2ZM595.094 109.28L593.846 81.44H601.526L600.278 109.28H595.094ZM594.086 119.84V112.64H601.286V119.408C599.03 119.696 596.342 119.84 594.086 119.84Z" fill="white"/>
<defs>
<clipPath id="clip0_1921_296">
<rect width="155" height="35" fill="white" transform="translate(278 16)"/>
</clipPath>
</defs>
</svg>
