<svg width="561" height="62" viewBox="0 0 561 62" fill="none" xmlns="http://www.w3.org/2000/svg">
<path d="M30.9234 49.456V11H36.6434V49.456H30.9234ZM3.20344 48.136V41.976C7.51544 39.204 12.2234 32.78 12.2234 23.056V17.072H3.64344V11.88H26.5234V17.072H17.9434V23.056C17.9434 31.46 22.6514 37.62 26.9634 39.952V45.936C22.6514 44.088 17.9874 39.952 15.3034 34.584C12.7074 41.008 7.73544 45.892 3.20344 48.136ZM44.36 49.896V34.848H76.92V47.564C66.36 49.368 54.92 49.764 44.36 49.896ZM42.6 30.448V25.608H70.32C70.892 22.704 71.2 19.096 71.2 16.72H44.36V11.88H76.92V14.96C76.92 18.876 76.524 22.66 75.996 25.608H78.68V30.448H42.6ZM49.904 45.144C56.988 44.968 64.292 44.616 71.376 43.736V39.512H49.904V45.144Z" fill="white"/>
<g clip-path="url(#clip0_1856_14466)">
<path fill-rule="evenodd" clip-rule="evenodd" d="M189.394 18C189.394 24.9401 191.151 31.4653 194.238 37.1465C194.784 30.1419 197.027 23.6196 200.551 18H212.123C206.488 25.8977 203.03 35.49 202.641 45.8768H188.459C182.682 38.0731 179.185 28.4443 178.964 18H189.394Z" fill="white"/>
<path fill-rule="evenodd" clip-rule="evenodd" d="M224.05 18.6575C224.05 25.5976 225.807 32.1228 228.894 37.804C229.44 30.7994 231.683 24.2771 235.207 18.6575H246.779C241.144 26.5552 237.686 36.1474 237.297 46.5343H223.115C217.338 38.7305 213.841 29.1018 213.62 18.6575H224.05Z" fill="white"/>
<path fill-rule="evenodd" clip-rule="evenodd" d="M136.748 46.5342C136.109 36.8285 138.684 26.947 144.471 18.6575H132.956C130.254 23.4841 128.798 28.8305 128.587 34.2172C126.278 28.0948 125.627 21.4794 126.634 15.0787H117.348C113.834 20.9388 112.066 27.5687 112.044 34.2032C109.541 26.8903 109.015 19.0391 110.465 11.5H99.166C97.2363 24.5016 100.304 38.1151 108.369 49.1711H119.766C118.725 43.9764 118.784 38.6009 119.945 33.4268C120.876 38.0293 122.675 42.4878 125.343 46.5342H136.748Z" fill="white"/>
<path fill-rule="evenodd" clip-rule="evenodd" d="M158.887 38.7738C155.217 38.7738 152.684 36.0077 152.684 32.5957C152.684 29.1837 155.217 26.4176 158.887 26.4176C162.557 26.4176 165.091 29.1837 165.091 32.5957C165.091 36.0077 162.557 38.7738 158.887 38.7738ZM166.852 18.6575C166.723 19.3656 166.603 20.0752 166.494 20.7861C164.017 18.7789 160.914 17.6401 157.539 17.6401C149.339 17.6401 142.869 24.2736 142.869 32.5957C142.869 40.9178 149.339 47.5513 157.539 47.5513C160.914 47.5513 164.017 46.4126 166.494 44.4052C166.603 45.1162 166.723 45.8258 166.852 46.534H176.177C174.493 37.3261 174.493 27.8654 176.177 18.6575H166.852Z" fill="white"/>
<mask id="mask0_1856_14466" style="mask-type:luminance" maskUnits="userSpaceOnUse" x="244" y="17" width="32" height="31">
<path fill-rule="evenodd" clip-rule="evenodd" d="M244.842 17.6401H275.393V47.5511H244.842V17.6401Z" fill="white"/>
</mask>
<g mask="url(#mask0_1856_14466)">
<path fill-rule="evenodd" clip-rule="evenodd" d="M254.529 29.3699C255.38 26.517 257.726 25.1077 260.426 25.1077C263.127 25.1077 265.355 26.5934 266.211 29.3699H254.529ZM260.408 17.6401C250.556 17.6401 244.842 24.822 244.842 32.4566C244.842 40.7308 250.898 47.5511 261.528 47.5511C266.099 47.5511 270.706 46.2513 273.602 44.8144V36.6098C270.677 38.1649 266.677 39.5452 262.836 39.5452C258.261 39.5452 255.382 37.6602 254.559 34.8626H275.314C276.167 24.6174 270.043 17.6401 260.408 17.6401Z" fill="white"/>
</g>
</g>
<path d="M286.615 26.4V17.84H311.175V16.48H286.615V12.8H316.215V21.36H291.655V22.72H316.375V26.4H286.615ZM285.015 31.84V27.92H317.815V31.84H285.015ZM286.615 47.36V38.4H311.175V37.04H286.615V33.36H316.215V41.92H291.655V43.68C299.815 43.64 308.375 43.4 316.615 42.48V46.16C306.655 47.28 296.215 47.36 286.615 47.36ZM357.412 46.96V12H362.612V46.96H357.412ZM332.212 45.76V40C336.212 37.36 340.412 31.2 340.412 22.16V12.6H345.612V22.16C345.612 30 349.812 35.92 353.812 38.16V43.76C349.892 42 345.692 38.08 343.212 33.08C340.852 39.08 336.372 43.6 332.212 45.76ZM368.809 17.36V12.8H389.609V17.36H381.809V18.52C381.809 21.88 385.769 25.64 390.009 26.4V31.2C386.209 30.72 381.769 28.28 379.369 24.96C377.049 28.92 372.369 32.04 368.409 32.8V28C372.649 26.92 376.609 22.32 376.609 18.52V17.36H368.809ZM369.609 40.64V36C379.769 35.8 389.169 34.88 398.409 32.8V46.96H393.209V38.48C385.649 39.84 377.889 40.48 369.609 40.64ZM393.209 32.24V12H398.409V19.56H402.409V24.36H398.409V31.16C396.729 31.6 394.809 31.96 393.209 32.24ZM423.245 46.64V12.16H428.205V26.16H430.765V12H435.805V46.96H430.765V30.8H428.205V46.64H423.245ZM405.005 19.36V14.88H410.605V11.2H415.645V14.88H421.245V19.36H405.005ZM405.805 39.4V27.72C405.805 23.72 409.125 20.96 413.125 20.96C417.125 20.96 420.445 23.72 420.445 27.72V39.4C420.445 43.4 417.125 46.16 413.125 46.16C409.125 46.16 405.805 43.4 405.805 39.4ZM410.685 39.4C410.685 40.84 411.685 41.84 413.125 41.84C414.565 41.84 415.565 40.84 415.565 39.4V27.72C415.565 26.28 414.565 25.28 413.125 25.28C411.685 25.28 410.685 26.28 410.685 27.72V39.4ZM441.202 40.96C445.762 40.92 450.402 40.84 455.002 40.6V33.64C451.002 33.84 446.922 33.92 442.802 34V12.64H447.842V18.24H467.362V12.64H472.402V31.88C468.442 32.56 464.362 33 460.202 33.32V40.28C464.962 39.92 469.642 39.4 474.002 38.56V43.36C463.882 45.28 452.242 45.68 441.202 45.76V40.96ZM447.842 29.28C454.522 29.08 461.082 28.76 467.362 28V22.8H447.842V29.28ZM496.679 46.64V28.4H492.439V23.76H496.679V12.16H501.639V46.64H496.679ZM478.599 45.76V39.76C481.319 37.6 484.199 32.4 484.199 24.96V12.6H489.239V24.96C489.239 31.76 492.119 36.88 494.839 38.8V44.64C492.119 43.28 488.879 39.88 486.839 35.52C484.839 40.4 481.439 44.2 478.599 45.76ZM503.959 46.96V12H508.999V46.96H503.959ZM525.396 33.2V40.72C529.036 40.6 532.636 40.4 536.196 40.08V33.2H525.396ZM514.396 45.76V40.96C516.356 40.96 518.356 40.92 520.356 40.88V31.64C517.476 29.84 515.596 26.64 515.596 23C515.596 17.36 520.156 12.8 525.796 12.8H535.796C541.436 12.8 545.996 17.36 545.996 23C545.996 26.64 544.116 29.84 541.236 31.64V39.52C543.276 39.24 545.276 38.92 547.196 38.56V43.36C537.076 45.28 525.436 45.68 514.396 45.76ZM520.636 23C520.636 26.08 523.036 28.56 526.116 28.56H535.476C538.556 28.56 540.956 26.08 540.956 23C540.956 19.92 538.556 17.44 535.476 17.44H526.116C523.036 17.44 520.636 19.92 520.636 23ZM552.833 36.4L551.793 13.2H558.193L557.153 36.4H552.833ZM551.993 45.2V39.2H557.993V44.84C556.113 45.08 553.873 45.2 551.993 45.2Z" fill="white"/>
<defs>
<clipPath id="clip0_1856_14466">
<rect width="180" height="39" fill="white" transform="translate(97 11.5)"/>
</clipPath>
</defs>
</svg>
