<svg width="17" height="16" viewBox="0 0 17 16" fill="none" xmlns="http://www.w3.org/2000/svg">
<path d="M7.18893 0.604483C7.53601 -0.201481 8.67875 -0.20148 9.02584 0.604483L10.5763 4.2049C10.7211 4.54108 11.038 4.7713 11.4024 4.8051L15.3058 5.16712C16.1795 5.24816 16.5327 6.33497 15.8734 6.91413L12.9283 9.50133C12.6534 9.7429 12.5323 10.1154 12.6128 10.4725L13.4747 14.2966C13.6676 15.1527 12.7431 15.8244 11.9886 15.3763L8.61794 13.3749C8.30322 13.188 7.91155 13.188 7.59682 13.3749L4.22617 15.3763C3.47164 15.8244 2.54714 15.1527 2.74008 14.2966L3.60197 10.4725C3.68245 10.1154 3.56141 9.7429 3.28643 9.50133L0.341359 6.91413C-0.317903 6.33497 0.0352236 5.24816 0.908995 5.16712L4.81233 4.8051C5.17679 4.7713 5.49366 4.54108 5.63843 4.2049L7.18893 0.604483Z" fill="#FFC400"/>
</svg>
