<svg width="50" height="50" viewBox="0 0 50 50" fill="none" xmlns="http://www.w3.org/2000/svg">
<circle cx="25" cy="25" r="25" fill="#0B0E15"/>
<path d="M36.9115 18.6903C36.6283 17.6283 35.7965 16.7965 34.7522 16.5133C32.8407 16 25.2124 16 25.2124 16C25.2124 16 17.5664 16 15.6726 16.5133C14.6283 16.7965 13.7965 17.6283 13.5133 18.6903C13 20.6018 13 24.6018 13 24.6018C13 24.6018 13 28.6018 13.5133 30.5133C13.7965 31.5752 14.6283 32.4071 15.6726 32.6903C17.5841 33.2035 25.2124 33.2036 25.2124 33.2036C25.2124 33.2036 32.8584 33.2035 34.7522 32.6903C35.7965 32.4071 36.6283 31.5752 36.9115 30.5133C37.4248 28.6018 37.4248 24.6018 37.4248 24.6018C37.4248 24.6018 37.4248 20.6018 36.9115 18.6903ZM22.7168 28.2301V20.9735L29.1062 24.6018L22.7168 28.2301Z" fill="white"/>
</svg>
