<svg width="90" height="42" viewBox="0 0 90 42" fill="none" xmlns="http://www.w3.org/2000/svg">
<g clip-path="url(#clip0_2587_4207)">
<path d="M36 9H45H54M36 5H54V17C54 18.1046 53.1046 19 52 19H38C36.8954 19 36 18.1046 36 17V5Z" stroke="#5A5F76" stroke-width="1.5" stroke-linecap="round" stroke-linejoin="round"/>
<path d="M40 13H43" stroke="#5A5F76" stroke-width="1.5" stroke-linecap="round" stroke-linejoin="round"/>
</g>
<path d="M28.2363 29.4492V40.0547H26.9238V29.4492H28.2363ZM22.5293 30.2227C24.123 30.2227 25.2832 31.6758 25.2949 33.9609C25.2832 36.2695 24.123 37.7109 22.5293 37.7109C20.9238 37.7109 19.7637 36.2695 19.7637 33.9609C19.7637 31.6758 20.9238 30.2227 22.5293 30.2227ZM22.5293 31.3945C21.627 31.3945 21.0176 32.3438 21.0176 33.9609C21.0176 35.5898 21.627 36.5391 22.5293 36.5391C23.4199 36.5391 24.0293 35.5898 24.0293 33.9609C24.0293 32.3438 23.4199 31.3945 22.5293 31.3945ZM39.4512 34.5469V35.5898H29.7949V34.5469H32.0449V33.1992C31.248 32.8652 30.791 32.332 30.791 31.6406C30.791 30.375 32.2793 29.625 34.6113 29.625C36.9434 29.625 38.4199 30.375 38.4316 31.6406C38.4258 32.3379 37.9688 32.8711 37.166 33.1992V34.5469H39.4512ZM34.6113 36.2344C36.8965 36.2227 38.2676 36.9023 38.2793 38.1211C38.2676 39.3516 36.8965 40.0195 34.6113 40.0195C32.3027 40.0195 30.9199 39.3516 30.9199 38.1211C30.9199 36.9023 32.3027 36.2227 34.6113 36.2344ZM34.6113 37.2188C33.0645 37.2188 32.2324 37.5234 32.2441 38.1211C32.2324 38.7188 33.0645 39.0352 34.6113 39.0352C36.123 39.0352 36.9668 38.7188 36.9785 38.1211C36.9668 37.5234 36.123 37.2188 34.6113 37.2188ZM34.6113 30.6328C33.041 30.6328 32.1387 30.9844 32.1504 31.6406C32.1387 32.2852 33.041 32.625 34.6113 32.625C36.1699 32.625 37.084 32.2852 37.084 31.6406C37.084 30.9844 36.1699 30.6328 34.6113 30.6328ZM33.3574 34.5469H35.8652V33.5391C35.4844 33.5918 35.0625 33.6211 34.6113 33.6211C34.1602 33.6211 33.7383 33.5918 33.3574 33.5391V34.5469ZM49.1191 29.4609V37.4414H47.7949V36.1641H45.6387V35.1328H47.7949V29.4609H49.1191ZM49.3652 38.7773V39.832H41.6074V36.5977H42.9082V38.7773H49.3652ZM40.0957 33.5273C41.3848 33.5215 42.9844 33.5039 44.584 33.4102C44.7363 32.4258 44.7832 31.6406 44.8066 31.0664H41.0566V30.0234H46.1074V30.4219C46.1074 30.9727 46.1074 31.9629 45.8965 33.3047C46.2598 33.2695 46.623 33.2227 46.9746 33.1758L47.0684 34.1016C46.1543 34.2598 45.2109 34.3711 44.2793 34.4414V36.7617H42.9902V34.5117C42.0059 34.5586 41.0742 34.5703 40.2598 34.5703L40.0957 33.5273ZM59.0098 30.0938V31.043C59.0098 32.0332 59.0098 33.1172 58.7285 34.6172H60.1934V35.6719H55.9863V40.0547H54.6738V35.6719H50.5371V34.6172H57.4043C57.6973 33.1758 57.709 32.0977 57.709 31.1484H51.6738V30.0938H59.0098ZM70.0488 29.4492V40.043H68.7949V34.6172H67.6699V39.5273H66.4395V29.6367H67.6699V33.5391H68.7949V29.4492H70.0488ZM65.3965 30.5977V37.3125H61.2363V30.5977H65.3965ZM62.4551 31.6289V36.2812H64.1777V31.6289H62.4551Z" fill="#5A5F76"/>
<defs>
<clipPath id="clip0_2587_4207">
<rect width="24" height="24" fill="white" transform="translate(33)"/>
</clipPath>
</defs>
</svg>
