<svg width="90" height="42" viewBox="0 0 90 42" fill="none" xmlns="http://www.w3.org/2000/svg">
<g clip-path="url(#clip0_2590_5246)">
<circle cx="50" cy="7" r="3" stroke="white" stroke-width="1.5" stroke-linecap="round" stroke-linejoin="round"/>
<circle cx="40" cy="17" r="3" stroke="white" stroke-width="1.5" stroke-linecap="round" stroke-linejoin="round"/>
<path d="M47 14H53V19C53 19.5523 52.5523 20 52 20H48C47.4477 20 47 19.5523 47 19V14Z" stroke="white" stroke-width="1.5" stroke-linecap="round" stroke-linejoin="round"/>
<path d="M37 4H43V9C43 9.55228 42.5523 10 42 10H38C37.4477 10 37 9.55228 37 9V4Z" stroke="white" stroke-width="1.5" stroke-linecap="round" stroke-linejoin="round"/>
</g>
<path d="M33.4805 29.4609V37.1953H32.1797V33.3164H30.3047V32.2617H32.1797V29.4609H33.4805ZM33.75 38.7773V39.832H26.5312V36.5156H27.832V38.7773H33.75ZM28.5 31.5703C28.5 32.8477 29.3555 34.1602 30.9961 34.6992L30.3398 35.7422C29.1562 35.3379 28.3184 34.5352 27.8555 33.5273C27.3867 34.6465 26.502 35.5312 25.2539 35.9648L24.5859 34.9102C26.2734 34.3594 27.1758 32.9648 27.1758 31.5586V31.2773H24.9727V30.2227H30.6914V31.2773H28.5V31.5703ZM38.2148 32.6836C38.2148 34.3242 38.8945 35.9766 40.3711 36.7734L39.6445 37.7344C38.6602 37.2129 37.9922 36.2812 37.6172 35.168C37.2422 36.3691 36.5742 37.3945 35.5781 37.9805L34.8164 36.9961C36.3164 36.1289 36.9844 34.3594 36.9844 32.6836V32.3555H35.1797V31.3008H36.9844V29.8242H38.2148V31.3008H39.9844V32.3555H38.2148V32.6836ZM44.0977 29.4492V40.043H42.8555V29.4492H44.0977ZM41.9414 29.6484V39.5273H40.7109V34.5938H39.3281V33.5156H40.7109V29.6484H41.9414ZM49.8398 30.5977V33.3516H51.0703V29.6367H52.3125V39.5273H51.0703V34.4062H49.8398V37.3125H45.6797V30.5977H49.8398ZM46.8984 31.6289V36.2812H48.6211V31.6289H46.8984ZM54.4922 29.4492V40.043H53.2383V29.4492H54.4922ZM64.2773 32.8711V33.9258H56.918V29.9531H58.2188V32.8711H64.2773ZM65.3789 35.2266V36.2812H63.0586V40.043H61.7461V36.2812H59.3555V40.043H58.0547V36.2812H55.7227V35.2266H65.3789Z" fill="white"/>
<defs>
<clipPath id="clip0_2590_5246">
<rect width="24" height="24" fill="white" transform="translate(33)"/>
</clipPath>
</defs>
</svg>
