<svg width="90" height="19" viewBox="0 0 90 19" fill="none" xmlns="http://www.w3.org/2000/svg">
<g clip-path="url(#clip0_2107_604)">
<path fill-rule="evenodd" clip-rule="evenodd" d="M46.197 3.1665C46.197 6.54759 47.0751 9.72654 48.619 12.4943C48.8918 9.08181 50.0133 5.90428 51.7752 3.1665H57.5615C54.7436 7.01412 53.0149 11.6873 52.8205 16.7475H45.7294C42.841 12.9457 41.0921 8.25475 40.9819 3.1665H46.197Z" fill="white"/>
<path fill-rule="evenodd" clip-rule="evenodd" d="M63.5252 3.48682C63.5252 6.86791 64.4032 10.0469 65.9471 12.8146C66.2199 9.40212 67.3414 6.22459 69.1033 3.48682H74.8896C72.0717 7.33443 70.3431 12.0076 70.1486 17.0678H63.0576C60.1691 13.266 58.4202 8.57506 58.3101 3.48682H63.5252Z" fill="white"/>
<path fill-rule="evenodd" clip-rule="evenodd" d="M19.8739 17.0679C19.5549 12.3396 20.8421 7.52546 23.7355 3.48698H17.978C16.6271 5.83838 15.899 8.44305 15.7935 11.0673C14.639 8.08466 14.3134 4.86174 14.817 1.74349H10.1744C8.41739 4.59839 7.53331 7.82832 7.522 11.0605C6.27083 7.49783 6.00789 3.67291 6.73285 0H1.08316C0.118284 6.3341 1.65203 12.9663 5.68448 18.3526H11.383C10.8624 15.8219 10.8923 13.203 11.4726 10.6823C11.9382 12.9245 12.8378 15.0966 14.1718 17.0679H19.8739Z" fill="white"/>
<path fill-rule="evenodd" clip-rule="evenodd" d="M30.9438 13.2871C29.1088 13.2871 27.8421 11.9395 27.8421 10.2773C27.8421 8.61501 29.1088 7.26742 30.9438 7.26742C32.779 7.26742 34.0456 8.61501 34.0456 10.2773C34.0456 11.9395 32.779 13.2871 30.9438 13.2871ZM34.9263 3.48683C34.8616 3.83181 34.8018 4.17752 34.7471 4.52387C33.5089 3.54597 31.9574 2.99121 30.2699 2.99121C26.1698 2.99121 22.9346 6.22292 22.9346 10.2773C22.9346 14.3316 26.1698 17.5633 30.2699 17.5633C31.9574 17.5633 33.5089 17.0086 34.7471 16.0306C34.8018 16.377 34.8616 16.7227 34.9263 17.0677H39.5886C38.7467 12.5818 38.7467 7.97273 39.5886 3.48683H34.9263Z" fill="white"/>
<mask id="mask0_2107_604" style="mask-type:luminance" maskUnits="userSpaceOnUse" x="73" y="2" width="17" height="16">
<path fill-rule="evenodd" clip-rule="evenodd" d="M73.9209 2.99121H89.1964V17.5632H73.9209V2.99121Z" fill="white"/>
</mask>
<g mask="url(#mask0_2107_604)">
<path fill-rule="evenodd" clip-rule="evenodd" d="M78.7647 8.70573C79.1898 7.31585 80.3627 6.62925 81.7127 6.62925C83.0635 6.62925 84.1773 7.35303 84.6056 8.70573H78.7647ZM81.7039 2.99121C76.7778 2.99121 73.9209 6.49006 73.9209 10.2095C73.9209 14.2405 76.9488 17.5632 82.264 17.5632C84.5493 17.5632 86.8532 16.93 88.3012 16.23V12.2328C86.8387 12.9905 84.8386 13.6629 82.9181 13.6629C80.6303 13.6629 79.191 12.7446 78.7797 11.3816H89.157C89.5837 6.39037 86.5213 2.99121 81.7039 2.99121Z" fill="white"/>
</g>
</g>
<defs>
<clipPath id="clip0_2107_604">
<rect width="90" height="19" fill="white"/>
</clipPath>
</defs>
</svg>
