<svg width="60" height="60" viewBox="0 0 60 60" fill="none" xmlns="http://www.w3.org/2000/svg">
<circle cx="30" cy="30" r="30" fill="#F0F0F0"/>
<path d="M41.497 35.8205C41.0661 36.7987 40.5561 37.6992 39.9651 38.5271C39.1596 39.6557 38.5001 40.4369 37.9918 40.8707C37.2039 41.5828 36.3597 41.9475 35.4557 41.9682C34.8067 41.9682 34.024 41.7867 33.113 41.4186C32.199 41.0522 31.359 40.8707 30.5909 40.8707C29.7854 40.8707 28.9215 41.0522 27.9975 41.4186C27.072 41.7867 26.3265 41.9786 25.7565 41.9976C24.8896 42.0339 24.0255 41.6588 23.163 40.8707C22.6125 40.3989 21.924 39.59 21.0991 38.4441C20.2141 37.2205 19.4865 35.8015 18.9165 34.1838C18.306 32.4364 18 30.7444 18 29.1062C18 27.2298 18.4126 25.6114 19.239 24.2551C19.8886 23.1658 20.7526 22.3064 21.8341 21.6756C22.9156 21.0447 24.0841 20.7233 25.3425 20.7027C26.031 20.7027 26.934 20.912 28.056 21.3233C29.175 21.7361 29.8934 21.9454 30.2084 21.9454C30.4439 21.9454 31.242 21.7006 32.595 21.2127C33.8745 20.7602 34.9544 20.5729 35.8391 20.6467C38.2363 20.8368 40.0372 21.7654 41.2349 23.4385C39.091 24.715 38.0305 26.503 38.0516 28.7967C38.0709 30.5833 38.7305 32.07 40.0267 33.2505C40.6141 33.7983 41.2701 34.2218 42 34.5225C41.8417 34.9736 41.6746 35.4057 41.497 35.8205ZM35.9991 14.5602C35.9991 15.9605 35.4785 17.268 34.4409 18.4781C33.1886 19.9168 31.674 20.7481 30.0315 20.617C30.0106 20.449 29.9984 20.2722 29.9984 20.0864C29.9984 18.7421 30.5939 17.3034 31.6515 16.1271C32.1795 15.5315 32.8509 15.0363 33.6653 14.6412C34.4778 14.2521 35.2464 14.0369 35.9692 14C35.9903 14.1872 35.9991 14.3744 35.9991 14.5601V14.5602Z" fill="black"/>
</svg>
