<svg width="90" height="42" viewBox="0 0 90 42" fill="none" xmlns="http://www.w3.org/2000/svg">
<g clip-path="url(#clip0_2587_4168)">
<path d="M52 10V19C52 20.1046 51.1046 21 50 21H40C38.8954 21 38 20.1046 38 19V10M54 12L45 3L36 12" stroke="#5A5F76" stroke-width="1.5" stroke-linecap="round" stroke-linejoin="round"/>
</g>
<path d="M38.2793 36.832V39.9141H30.9316V36.832H38.2793ZM32.2207 37.8164V38.9297H37.0137V37.8164H32.2207ZM38.9238 30.2578V31.2422H30.2754V30.2578H33.9668V29.332H35.2676V30.2578H38.9238ZM34.6113 31.5703C36.873 31.5703 38.1387 32.0742 38.1387 33.0703C38.1387 33.9668 37.1191 34.4707 35.2676 34.5586V35.1797H39.4512V36.2109H29.7949V35.1797H33.9668V34.5586C32.127 34.4766 31.0957 33.9668 31.0957 33.0703C31.0957 32.0742 32.373 31.5703 34.6113 31.5703ZM34.6113 32.4492C33.2051 32.4609 32.4902 32.6367 32.4902 33.0703C32.4902 33.4922 33.2051 33.6914 34.6113 33.6914C36.0293 33.6914 36.7441 33.4922 36.7441 33.0703C36.7441 32.6367 36.0293 32.4609 34.6113 32.4492ZM44.9824 30.0469C47.2207 30.0469 48.9316 31.2305 48.9316 33.0352C48.9316 34.8633 47.2207 36.0469 44.9824 36.0469C42.7559 36.0469 41.0449 34.8633 41.0566 33.0352C41.0449 31.2305 42.7559 30.0469 44.9824 30.0469ZM44.9824 31.1016C43.4473 31.0898 42.3105 31.8633 42.3105 33.0352C42.3105 34.2305 43.4473 34.9805 44.9824 34.9805C46.5293 34.9805 47.6543 34.2305 47.6543 33.0352C47.6543 31.8633 46.5293 31.0898 44.9824 31.1016ZM49.8457 37.6406V38.707H40.166V37.6406H49.8457ZM60.2168 37.7344V38.8125H50.5371V37.7344H54.709V36.0117H51.6855V32.543H57.7793V31.2305H51.6621V30.1758H59.0684V33.5742H52.9863V34.9453H59.3145V36.0117H55.998V37.7344H60.2168Z" fill="#5A5F76"/>
<defs>
<clipPath id="clip0_2587_4168">
<rect width="24" height="24" fill="white" transform="translate(33)"/>
</clipPath>
</defs>
</svg>
