<svg width="60" height="60" viewBox="0 0 60 60" fill="none" xmlns="http://www.w3.org/2000/svg">
<circle cx="30" cy="30" r="30" fill="white"/>
<mask id="mask0_965_2025" style="mask-type:luminance" maskUnits="userSpaceOnUse" x="16" y="16" width="28" height="28">
<path d="M43.7311 27.4027H30.2982V32.7852H38.0168C37.8927 33.547 37.6141 34.2964 37.2061 34.9797C36.7387 35.7625 36.1608 36.3586 35.5684 36.8124C33.7941 38.1721 31.7255 38.4501 30.2889 38.4501C26.6597 38.4501 23.5589 36.1045 22.3585 32.9173C22.31 32.8017 22.2779 32.6822 22.2387 32.5641C21.9734 31.7529 21.8285 30.8938 21.8285 30.0009C21.8285 29.0716 21.9854 28.182 22.2716 27.3419C23.4004 24.0283 26.5712 21.5534 30.2915 21.5534C31.0398 21.5534 31.7604 21.6425 32.4437 21.8201C34.0055 22.2262 35.1102 23.0258 35.7871 23.6583L39.8715 19.6584C37.387 17.3804 34.1481 16 30.2847 16C27.1961 15.9999 24.3446 16.9622 22.0079 18.5886C20.1129 19.9075 18.5587 21.6734 17.5098 23.7242C16.5342 25.6258 16 27.7331 16 29.9988C16 32.2646 16.535 34.3938 17.5106 36.2778V36.2905C18.5411 38.2906 20.048 40.0127 21.8795 41.3256C23.4796 42.4725 26.3485 44 30.2847 44C32.5482 44 34.5544 43.5919 36.3236 42.8271C37.6 42.2753 38.7308 41.5557 39.7546 40.6309C41.1074 39.4088 42.1669 37.8973 42.89 36.1582C43.6132 34.4192 44 32.4526 44 30.3204C44 29.3275 43.9003 28.3191 43.7311 27.4026V27.4027Z" fill="white"/>
</mask>
<g mask="url(#mask0_965_2025)">
<g filter="url(#filter0_f_965_2025)">
<path d="M15.8384 30.0596C15.8532 32.2897 16.4887 34.5906 17.4505 36.448V36.4608C18.1455 37.8097 19.0954 38.8753 20.1773 39.931L26.7115 37.5468C25.4752 36.9188 25.2866 36.5341 24.4004 35.8319C23.4948 34.9188 22.8199 33.8704 22.3995 32.6412H22.3826L22.3995 32.6284C22.123 31.8167 22.0957 30.9551 22.0855 30.0596H15.8384Z" fill="url(#paint0_radial_965_2025)"/>
</g>
<g filter="url(#filter1_f_965_2025)">
<path d="M30.3424 15.864C29.6966 18.1329 29.9435 20.3383 30.3424 21.6216C31.0882 21.6221 31.8067 21.711 32.4879 21.8881C34.0496 22.2942 35.1542 23.0938 35.8311 23.7264L40.0201 19.6242C37.5385 17.3489 34.5521 15.8675 30.3424 15.864Z" fill="url(#paint1_radial_965_2025)"/>
</g>
<g filter="url(#filter2_f_965_2025)">
<path d="M30.3287 15.846C27.1608 15.8459 24.2361 16.833 21.8394 18.5011C20.9495 19.1204 20.1329 19.8359 19.4057 20.6315C19.2152 22.4187 20.8318 24.6153 24.033 24.5971C25.5862 22.7904 27.8834 21.6214 30.4402 21.6214C30.4425 21.6214 30.4448 21.6216 30.4471 21.6216L30.3427 15.8464C30.338 15.8464 30.3334 15.846 30.3287 15.846Z" fill="url(#paint2_radial_965_2025)"/>
</g>
<g filter="url(#filter3_f_965_2025)">
<path d="M40.7843 30.7063L37.9568 32.6488C37.8327 33.4106 37.5539 34.1599 37.1459 34.8432C36.6784 35.6261 36.1006 36.2222 35.5082 36.676C33.7376 38.0329 31.6744 38.3122 30.2382 38.3134C28.7537 40.8418 28.4934 42.1082 30.3426 44.1489C32.6308 44.1472 34.6593 43.7341 36.4487 42.9607C37.7421 42.4015 38.8881 41.6722 39.9256 40.735C41.2966 39.4965 42.3704 37.9647 43.1033 36.2023C43.8361 34.4399 44.228 32.447 44.228 30.2863L40.7843 30.7063Z" fill="url(#paint3_radial_965_2025)"/>
</g>
<g filter="url(#filter4_f_965_2025)">
<path d="M30.1338 27.1639V32.9555H43.7378C43.8574 32.1623 44.2531 31.1359 44.2531 30.2862C44.2531 29.2933 44.1535 28.0804 43.9843 27.1639H30.1338Z" fill="#3086FF"/>
</g>
<g filter="url(#filter5_f_965_2025)">
<path d="M19.4706 20.4271C18.6311 21.3456 17.9139 22.3737 17.3452 23.4856C16.3696 25.3871 15.8354 27.6989 15.8354 29.9646C15.8354 29.9966 15.8381 30.0278 15.8383 30.0597C16.2704 30.8881 21.8064 30.7295 22.0855 30.0597C22.0851 30.0284 22.0816 29.9979 22.0816 29.9666C22.0816 29.0373 22.2386 28.3524 22.5248 27.5122C22.8778 26.4759 23.4306 25.5216 24.1374 24.6994C24.2976 24.4948 24.725 24.055 24.8497 23.7912C24.8972 23.6908 24.7635 23.6344 24.756 23.599C24.7476 23.5595 24.5683 23.5913 24.5281 23.5618C24.4006 23.4682 24.148 23.4194 23.9947 23.376C23.6669 23.2832 23.1236 23.0785 22.8219 22.8663C21.8681 22.1956 20.3796 21.3945 19.4706 20.4271Z" fill="url(#paint4_radial_965_2025)"/>
</g>
<g filter="url(#filter6_f_965_2025)">
<path d="M22.8425 23.6029C25.0543 24.9427 25.6903 22.9267 27.1608 22.2958L24.6028 16.9911C23.6618 17.3866 22.7728 17.878 21.9479 18.4521C20.716 19.3095 19.6281 20.3558 18.7295 21.5465L22.8425 23.6029Z" fill="url(#paint5_radial_965_2025)"/>
</g>
<g filter="url(#filter7_f_965_2025)">
<path d="M23.7428 37.137C20.7738 38.2089 20.3089 38.2473 20.0356 40.0873C20.5579 40.597 21.119 41.0684 21.7153 41.4958C23.3153 42.6428 26.3931 44.1703 30.3292 44.1703C30.3338 44.1703 30.3383 44.1699 30.3429 44.1699V38.2112C30.3399 38.2112 30.3365 38.2114 30.3335 38.2114C28.8595 38.2114 27.6817 37.8242 26.4741 37.151C26.1763 36.985 25.6361 37.4307 25.3615 37.2315C24.9828 36.9567 24.0713 37.4683 23.7428 37.137Z" fill="url(#paint6_radial_965_2025)"/>
</g>
<g opacity="0.5" filter="url(#filter8_f_965_2025)">
<path d="M28.604 38.0235V44.0667C29.1547 44.1311 29.7279 44.1703 30.3291 44.1703C30.9319 44.1703 31.515 44.1393 32.0816 44.0824V38.0642C31.4466 38.1728 30.8486 38.2114 30.3334 38.2114C29.7401 38.2114 29.1631 38.1423 28.604 38.0235Z" fill="url(#paint7_linear_965_2025)"/>
</g>
</g>
<defs>
<filter id="filter0_f_965_2025" x="15.3683" y="29.5896" width="11.8132" height="10.8116" filterUnits="userSpaceOnUse" color-interpolation-filters="sRGB">
<feFlood flood-opacity="0" result="BackgroundImageFix"/>
<feBlend mode="normal" in="SourceGraphic" in2="BackgroundImageFix" result="shape"/>
<feGaussianBlur stdDeviation="0.23504" result="effect1_foregroundBlur_965_2025"/>
</filter>
<filter id="filter1_f_965_2025" x="29.4752" y="15.3939" width="11.0149" height="8.80259" filterUnits="userSpaceOnUse" color-interpolation-filters="sRGB">
<feFlood flood-opacity="0" result="BackgroundImageFix"/>
<feBlend mode="normal" in="SourceGraphic" in2="BackgroundImageFix" result="shape"/>
<feGaussianBlur stdDeviation="0.23504" result="effect1_foregroundBlur_965_2025"/>
</filter>
<filter id="filter2_f_965_2025" x="18.9205" y="15.3759" width="11.9968" height="9.69138" filterUnits="userSpaceOnUse" color-interpolation-filters="sRGB">
<feFlood flood-opacity="0" result="BackgroundImageFix"/>
<feBlend mode="normal" in="SourceGraphic" in2="BackgroundImageFix" result="shape"/>
<feGaussianBlur stdDeviation="0.23504" result="effect1_foregroundBlur_965_2025"/>
</filter>
<filter id="filter3_f_965_2025" x="28.5695" y="29.8162" width="16.1286" height="14.8028" filterUnits="userSpaceOnUse" color-interpolation-filters="sRGB">
<feFlood flood-opacity="0" result="BackgroundImageFix"/>
<feBlend mode="normal" in="SourceGraphic" in2="BackgroundImageFix" result="shape"/>
<feGaussianBlur stdDeviation="0.23504" result="effect1_foregroundBlur_965_2025"/>
</filter>
<filter id="filter4_f_965_2025" x="29.6637" y="26.6939" width="15.0593" height="6.73172" filterUnits="userSpaceOnUse" color-interpolation-filters="sRGB">
<feFlood flood-opacity="0" result="BackgroundImageFix"/>
<feBlend mode="normal" in="SourceGraphic" in2="BackgroundImageFix" result="shape"/>
<feGaussianBlur stdDeviation="0.23504" result="effect1_foregroundBlur_965_2025"/>
</filter>
<filter id="filter5_f_965_2025" x="15.3654" y="19.957" width="9.96457" height="11.1361" filterUnits="userSpaceOnUse" color-interpolation-filters="sRGB">
<feFlood flood-opacity="0" result="BackgroundImageFix"/>
<feBlend mode="normal" in="SourceGraphic" in2="BackgroundImageFix" result="shape"/>
<feGaussianBlur stdDeviation="0.23504" result="effect1_foregroundBlur_965_2025"/>
</filter>
<filter id="filter6_f_965_2025" x="15.4246" y="13.6863" width="15.0409" height="13.6718" filterUnits="userSpaceOnUse" color-interpolation-filters="sRGB">
<feFlood flood-opacity="0" result="BackgroundImageFix"/>
<feBlend mode="normal" in="SourceGraphic" in2="BackgroundImageFix" result="shape"/>
<feGaussianBlur stdDeviation="1.65243" result="effect1_foregroundBlur_965_2025"/>
</filter>
<filter id="filter7_f_965_2025" x="19.5656" y="36.6431" width="11.2473" height="7.99729" filterUnits="userSpaceOnUse" color-interpolation-filters="sRGB">
<feFlood flood-opacity="0" result="BackgroundImageFix"/>
<feBlend mode="normal" in="SourceGraphic" in2="BackgroundImageFix" result="shape"/>
<feGaussianBlur stdDeviation="0.23504" result="effect1_foregroundBlur_965_2025"/>
</filter>
<filter id="filter8_f_965_2025" x="28.1339" y="37.5534" width="4.4177" height="7.08695" filterUnits="userSpaceOnUse" color-interpolation-filters="sRGB">
<feFlood flood-opacity="0" result="BackgroundImageFix"/>
<feBlend mode="normal" in="SourceGraphic" in2="BackgroundImageFix" result="shape"/>
<feGaussianBlur stdDeviation="0.23504" result="effect1_foregroundBlur_965_2025"/>
</filter>
<radialGradient id="paint0_radial_965_2025" cx="0" cy="0" r="1" gradientTransform="matrix(-0.581842 -13.9439 20.9196 -0.836761 26.5807 39.7209)" gradientUnits="userSpaceOnUse">
<stop offset="0.141612" stop-color="#1ABD4D"/>
<stop offset="0.247515" stop-color="#6EC30D"/>
<stop offset="0.311547" stop-color="#8AC502"/>
<stop offset="0.366013" stop-color="#A2C600"/>
<stop offset="0.445673" stop-color="#C8C903"/>
<stop offset="0.540305" stop-color="#EBCB03"/>
<stop offset="0.615636" stop-color="#F7CD07"/>
<stop offset="0.699345" stop-color="#FDCD04"/>
<stop offset="0.771242" stop-color="#FDCE05"/>
<stop offset="0.860566" stop-color="#FFCE0A"/>
</radialGradient>
<radialGradient id="paint1_radial_965_2025" cx="0" cy="0" r="1" gradientTransform="matrix(9.88128 -2.37483e-05 -1.38885e-05 12.4941 39.6282 23.4296)" gradientUnits="userSpaceOnUse">
<stop offset="0.408458" stop-color="#FB4E5A"/>
<stop offset="1" stop-color="#FF4540"/>
</radialGradient>
<radialGradient id="paint2_radial_965_2025" cx="0" cy="0" r="1" gradientTransform="matrix(-13.8444 7.50741 10.4052 18.3936 34.2323 14.0374)" gradientUnits="userSpaceOnUse">
<stop offset="0.231273" stop-color="#FF4541"/>
<stop offset="0.311547" stop-color="#FF4540"/>
<stop offset="0.457516" stop-color="#FF4640"/>
<stop offset="0.540305" stop-color="#FF473F"/>
<stop offset="0.699346" stop-color="#FF5138"/>
<stop offset="0.771242" stop-color="#FF5B33"/>
<stop offset="0.860566" stop-color="#FF6C29"/>
<stop offset="1" stop-color="#FF8C18"/>
</radialGradient>
<radialGradient id="paint3_radial_965_2025" cx="0" cy="0" r="1" gradientTransform="matrix(-25.1072 -32.0888 -12.0979 9.07377 30.5484 42.3367)" gradientUnits="userSpaceOnUse">
<stop offset="0.131546" stop-color="#0CBA65"/>
<stop offset="0.209784" stop-color="#0BB86D"/>
<stop offset="0.297297" stop-color="#09B479"/>
<stop offset="0.396257" stop-color="#08AD93"/>
<stop offset="0.477124" stop-color="#0AA6A9"/>
<stop offset="0.568425" stop-color="#0D9CC6"/>
<stop offset="0.667385" stop-color="#1893DD"/>
<stop offset="0.768727" stop-color="#258BF1"/>
<stop offset="0.858506" stop-color="#3086FF"/>
</radialGradient>
<radialGradient id="paint4_radial_965_2025" cx="0" cy="0" r="1" gradientTransform="matrix(-1.77678 14.9942 21.1751 2.4053 29.1157 18.4905)" gradientUnits="userSpaceOnUse">
<stop offset="0.366013" stop-color="#FF4E3A"/>
<stop offset="0.457516" stop-color="#FF8A1B"/>
<stop offset="0.540305" stop-color="#FFA312"/>
<stop offset="0.615636" stop-color="#FFB60C"/>
<stop offset="0.771242" stop-color="#FFCD0A"/>
<stop offset="0.860566" stop-color="#FECF0A"/>
<stop offset="0.915033" stop-color="#FECF08"/>
<stop offset="1" stop-color="#FDCD01"/>
</radialGradient>
<radialGradient id="paint5_radial_965_2025" cx="0" cy="0" r="1" gradientTransform="matrix(-5.13581 5.56124 -16.0209 -14.1827 26.6172 18.335)" gradientUnits="userSpaceOnUse">
<stop offset="0.315904" stop-color="#FF4C3C"/>
<stop offset="0.603818" stop-color="#FF692C"/>
<stop offset="0.726837" stop-color="#FF7825"/>
<stop offset="0.884534" stop-color="#FF8D1B"/>
<stop offset="1" stop-color="#FF9F13"/>
</radialGradient>
<radialGradient id="paint6_radial_965_2025" cx="0" cy="0" r="1" gradientTransform="matrix(-13.8444 -7.5074 10.4052 -18.3936 34.2324 45.8938)" gradientUnits="userSpaceOnUse">
<stop offset="0.231273" stop-color="#0FBC5F"/>
<stop offset="0.311547" stop-color="#0FBC5F"/>
<stop offset="0.366013" stop-color="#0FBC5E"/>
<stop offset="0.457516" stop-color="#0FBC5D"/>
<stop offset="0.540305" stop-color="#12BC58"/>
<stop offset="0.699346" stop-color="#28BF3C"/>
<stop offset="0.771242" stop-color="#38C02B"/>
<stop offset="0.860566" stop-color="#52C218"/>
<stop offset="0.915033" stop-color="#67C30F"/>
<stop offset="1" stop-color="#86C504"/>
</radialGradient>
<linearGradient id="paint7_linear_965_2025" x1="28.604" y1="41.0969" x2="32.0816" y2="41.0969" gradientUnits="userSpaceOnUse">
<stop stop-color="#0FBC5C"/>
<stop offset="1" stop-color="#0CBA65"/>
</linearGradient>
</defs>
</svg>
