<svg width="90" height="42" viewBox="0 0 90 42" fill="none" xmlns="http://www.w3.org/2000/svg">
<g clip-path="url(#clip0_2587_4272)">
<path d="M54 21L49.6569 16.6569M49.6569 16.6569C51.1046 15.2091 52 13.2091 52 11C52 6.58172 48.4183 3 44 3C39.5817 3 36 6.58172 36 11C36 15.4183 39.5817 19 44 19C46.2091 19 48.2091 18.1046 49.6569 16.6569Z" stroke="#5A5F76" stroke-width="2" stroke-linecap="round" stroke-linejoin="round"/>
</g>
<path d="M40.4648 30.0938C40.4531 32.8242 38.6602 34.7344 35.5781 35.6016L35.0508 34.582C37.4238 33.9316 38.8301 32.6953 39.0703 31.1484H35.625V30.0938H40.4648ZM43.8516 29.4609V35.4258H42.5508V33.1172H40.5117V32.0508H42.5508V29.4609H43.8516ZM43.8516 35.8477V39.9023H36.8789V35.8477H43.8516ZM38.1562 36.8789V38.8711H42.5625V36.8789H38.1562ZM48.6562 31.3711C48.6562 32.5547 49.3125 33.7266 50.707 34.2773L50.0039 35.2734C49.0723 34.8984 48.4219 34.207 48.0469 33.3516C47.6484 34.3125 46.957 35.1211 45.9492 35.5547L45.2578 34.5469C46.7109 33.9023 47.3906 32.5664 47.4023 31.3711V30.082H48.6562V31.3711ZM54.4102 29.4609V35.8711H53.168V33.1758H52.1133V35.8125H50.8945V29.6367H52.1133V32.0977H53.168V29.4609H54.4102ZM54.4102 36.375V40.043H53.1094V37.418H47.1562V36.375H54.4102Z" fill="#5A5F76"/>
<defs>
<clipPath id="clip0_2587_4272">
<rect width="24" height="24" fill="white" transform="translate(33)"/>
</clipPath>
</defs>
</svg>
