<svg width="56" height="56" viewBox="0 0 56 56" fill="none" xmlns="http://www.w3.org/2000/svg">
<circle cx="28" cy="28" r="28" fill="#20222A"/>
<path d="M23.05 18C19.7086 18 17 20.7354 17 24.1108C17 27.6484 18.9948 30.9859 22.2938 34.0413C23.4197 35.0835 24.632 35.9979 25.8343 36.8189C26.2557 37.1056 26.6499 37.3656 27.0032 37.5822C27.2186 37.7145 27.3606 37.81 27.45 37.86C27.7822 38.0467 28.2178 38.0467 28.55 37.86C28.6394 37.81 28.7814 37.7145 28.9968 37.5822C29.3501 37.3656 29.7443 37.1056 30.1657 36.8189C31.368 35.9979 32.5803 35.0835 33.7063 34.0413C37.0051 30.9859 39 27.6484 39 24.1108C39 20.7354 36.2914 18 32.95 18C31.0523 18 29.1994 19.0444 28.0343 20.5688C26.8982 19.0177 25.0519 18 23.05 18Z" fill="#ADADAD"/>
</svg>
