<svg width="60" height="60" viewBox="0 0 60 60" fill="none" xmlns="http://www.w3.org/2000/svg">
<circle cx="30" cy="30" r="30" fill="black"/>
<rect x="17" y="15" width="28" height="31" fill="white"/>
<path d="M15.3333 8C11.2832 8 8 11.2832 8 15.3333V44.6667C8 48.7168 11.2832 52 15.3333 52H44.6667C48.7168 52 52 48.7168 52 44.6667V15.3333C52 11.2832 48.7168 8 44.6667 8H15.3333ZM17.5186 17.4286H25.8341L31.7392 25.8198L38.9048 17.4286H41.5238L32.9219 27.4996L43.529 42.5714H35.2156L28.3631 32.8359L20.0476 42.5714H17.4286L27.1804 31.1561L17.5186 17.4286ZM21.529 19.5238L36.3082 40.4762H39.5186L24.7394 19.5238H21.529Z" fill="black"/>
</svg>
