<svg width="48" height="48" viewBox="0 0 48 48" fill="none" xmlns="http://www.w3.org/2000/svg">
<circle cx="24" cy="24" r="24" fill="black" fill-opacity="0.4"/>
<circle cx="24" cy="24" r="23.5" stroke="white" stroke-opacity="0.8"/>
<path d="M23.998 14.9297C23.4571 14.9309 22.9705 15.0784 22.5292 15.3359C22.2503 15.4988 21.7268 15.9543 20.873 16.7422C20.838 16.7745 20.0331 17.5431 19.623 17.9297C19.3747 17.9295 18.1149 17.929 17.998 17.9297C16.3733 17.9399 15.01 19.3115 14.998 20.9297V26.9297C15.0158 28.6132 16.3191 29.9452 17.998 29.9297C18.0737 29.929 19.3384 29.9293 19.5918 29.9297C19.9906 30.308 20.8086 31.0864 20.8418 31.1172C21.681 31.8973 22.1968 32.3286 22.4668 32.4922C22.9204 32.7672 23.4303 32.9362 23.998 32.9297C25.6637 32.9105 27.0178 31.5791 26.998 29.9297L26.9668 23.9297L26.998 17.9297C26.9964 16.2588 25.6435 14.9261 23.998 14.9297ZM23.998 16.9297C24.5423 16.9285 24.9975 17.3747 24.998 17.9297L24.9668 23.9297L24.998 29.9297C25.0045 30.4709 24.5689 30.9231 23.998 30.9297C23.8216 30.9317 23.6453 30.894 23.498 30.8047C23.4057 30.7487 22.8913 30.2755 22.2168 29.6485C22.177 29.6115 20.7731 28.2955 20.6855 28.2109C20.4991 28.0312 20.257 27.9297 19.998 27.9297C19.9097 27.9297 18.1362 27.9284 17.998 27.9297C17.4383 27.9349 17.0042 27.5143 16.998 26.9297V20.9297C17.0019 20.41 17.4701 19.933 17.998 19.9297C18.1778 19.9286 19.8287 19.9296 19.998 19.9297C20.2561 19.9297 20.4993 19.8272 20.6855 19.6485C20.7737 19.5638 22.1743 18.2501 22.2168 18.2109C22.8939 17.586 23.4413 17.106 23.5292 17.0547C23.679 16.9673 23.8284 16.9301 23.998 16.9297ZM30.1231 19.9297C29.8696 19.8945 29.6246 19.9506 29.4043 20.1172C28.9639 20.4504 28.8524 21.083 29.1856 21.5235C29.7039 22.2088 29.9981 23.0419 29.9981 23.9297C29.9981 24.8079 29.7018 25.6484 29.1856 26.3359C28.854 26.7776 28.9627 27.4106 29.4043 27.7422C29.846 28.0738 30.479 27.9651 30.8106 27.5235C31.5847 26.4926 31.9981 25.245 31.9981 23.9297C31.9981 22.6042 31.5905 21.367 30.8106 20.3359C30.644 20.1157 30.3766 19.9649 30.1231 19.9297Z" fill="white" fill-opacity="0.8"/>
</svg>
