<svg width="60" height="60" viewBox="0 0 60 60" fill="none" xmlns="http://www.w3.org/2000/svg">
<circle cx="30" cy="30" r="30" fill="#FEE500"/>
<path d="M29.9907 19C22.7994 19 17 23.4401 17 28.8305C17 32.3293 19.4126 35.3931 23.0314 37.1425L21.8066 41.5205C21.7835 41.5862 21.7799 41.6566 21.7963 41.724C21.8127 41.7914 21.8484 41.8532 21.8994 41.9023C21.9737 41.9651 22.0693 41.9998 22.1685 42C22.2506 41.9937 22.3286 41.9626 22.3911 41.9112L27.6617 38.5101C28.4397 38.6129 29.2239 38.6662 30.0093 38.6699C37.1913 38.6699 43 34.2297 43 28.8305C43 23.4312 37.1727 19 29.9907 19Z" fill="#392020"/>
</svg>
