<svg width="68" height="68" viewBox="0 0 68 68" fill="none" xmlns="http://www.w3.org/2000/svg">
<circle cx="34" cy="34" r="34" fill="#202330"/>
<path d="M39.4004 24C42.4759 24.0002 44.9999 26.544 45 29.7217C45 33.2197 43.0431 36.6451 39.543 39.9141C38.3624 41.0159 37.0823 41.9908 35.7969 42.876C35.3428 43.1874 34.9275 43.4631 34.5615 43.6895V43.6904C34.2651 43.8739 34.189 43.9297 34.1094 43.9746L34.1074 43.9756C34.0508 44.0077 33.9492 44.0077 33.8926 43.9756L33.8906 43.9746C33.811 43.9297 33.7349 43.8739 33.4385 43.6904V43.6895C33.2555 43.5763 33.0598 43.4516 32.8535 43.3154L32.2031 42.876C30.9177 41.9908 29.6376 41.0159 28.457 39.9141C24.9569 36.6451 23 33.2197 23 29.7217C23.0001 26.544 25.5241 24.0002 28.5996 24C30.4403 24 32.1633 24.9468 33.2285 26.4131L34.0205 27.5039L34.834 26.4297C35.9463 24.9622 37.6902 24 39.4004 24Z" stroke="#AFAFAF" stroke-width="2"/>
</svg>
