<svg width="16" height="16" viewBox="0 0 16 16" fill="none" xmlns="http://www.w3.org/2000/svg">
<rect width="16" height="16" rx="8" fill="#2C3040"/>
<path d="M5.37883 5C5.283 5 5.1828 5.03223 5.10967 5.1053C4.96344 5.25182 4.96344 5.49764 5.10967 5.64416L7.46172 7.99785L5.10967 10.3515C4.96344 10.498 4.96344 10.7439 5.10967 10.8904C5.25593 11.0365 5.50172 11.0365 5.64798 10.8904L8 8.53671L10.352 10.8904C10.4983 11.0365 10.7441 11.0365 10.8903 10.8904C11.0366 10.7439 11.0366 10.498 10.8903 10.3515L8.53828 7.99785L10.8903 5.64416C11.0366 5.49764 11.0366 5.25182 10.8903 5.1053C10.8172 5.03223 10.717 5 10.6212 5C10.5254 5 10.4252 5.03223 10.352 5.1053L8 7.45899L5.64798 5.1053C5.57485 5.03223 5.47465 5 5.37883 5Z" fill="#ADB0BE"/>
</svg>
