<svg width="48" height="48" viewBox="0 0 48 48" fill="none" xmlns="http://www.w3.org/2000/svg">
<circle cx="24" cy="24" r="24" fill="black" fill-opacity="0.4"/>
<circle cx="24" cy="24" r="23.5" stroke="white" stroke-opacity="0.8"/>
<path d="M24 14.9297C23.459 14.9309 22.9725 15.0784 22.5312 15.3359C22.2523 15.4988 21.7288 15.9543 20.875 16.7422C20.84 16.7745 20.0351 17.5431 19.625 17.9297C19.3767 17.9295 18.1169 17.929 18 17.9297C16.3753 17.9399 15.012 19.3115 15 20.9297V26.9297C15.0178 28.6132 16.3211 29.9452 18 29.9297C18.0757 29.929 19.3404 29.9293 19.5938 29.9297C19.9926 30.308 20.8106 31.0864 20.8438 31.1172C21.683 31.8973 22.1988 32.3286 22.4688 32.4922C22.9224 32.7672 23.432 32.9362 24 32.9297C25.666 32.9105 27.02 31.5791 27 29.9297L26.969 23.9297L27 17.9297C26.998 16.2588 25.645 14.9261 24 14.9297ZM24 16.9297C24.544 16.9285 24.999 17.3747 25 17.9297L24.969 23.9297L25 29.9297C25.006 30.4709 24.571 30.9231 24 30.9297C23.824 30.9317 23.647 30.894 23.5 30.8047C23.408 30.7487 22.8933 30.2755 22.2188 29.6485C22.179 29.6115 20.7751 28.2955 20.6875 28.2109C20.5011 28.0312 20.2589 27.9297 20 27.9297C19.9117 27.9297 18.1382 27.9284 18 27.9297C17.4403 27.9349 17.0062 27.5143 17 26.9297V20.9297C17.0039 20.41 17.472 19.933 18 19.9297C18.1798 19.9286 19.8307 19.9296 20 19.9297C20.2581 19.9297 20.5012 19.8272 20.6875 19.6485C20.7757 19.5638 22.1763 18.2501 22.2188 18.2109C22.8959 17.586 23.443 17.106 23.531 17.0547C23.681 16.9673 23.83 16.9301 24 16.9297ZM30 20.9297C29.744 20.9297 29.477 21.0157 29.281 21.2109C28.891 21.6015 28.891 22.2579 29.281 22.6485L30.562 23.9297L29.281 25.2109C28.891 25.6015 28.891 26.2579 29.281 26.6485C29.672 27.039 30.328 27.039 30.719 26.6485L32 25.3672L33.281 26.6485C33.672 27.039 34.328 27.039 34.719 26.6485C35.109 26.2579 35.109 25.6015 34.719 25.2109L33.438 23.9297L34.719 22.6485C35.109 22.2579 35.109 21.6015 34.719 21.2109C34.523 21.0157 34.256 20.9297 34 20.9297C33.744 20.9297 33.477 21.0157 33.281 21.2109L32 22.4922L30.719 21.2109C30.523 21.0157 30.256 20.9297 30 20.9297Z" fill="white" fill-opacity="0.8"/>
</svg>
