<svg width="50" height="50" viewBox="0 0 50 50" fill="none" xmlns="http://www.w3.org/2000/svg">
<circle cx="25" cy="25" r="25" fill="#0B0E15"/>
<path d="M25 14.343C28.4732 14.343 28.8809 14.3585 30.2537 14.4204C31.5232 14.4772 32.2096 14.6888 32.6689 14.8694C33.2779 15.1068 33.7114 15.3855 34.1656 15.8396C34.6197 16.2938 34.9036 16.7273 35.1358 17.3362C35.3113 17.7956 35.528 18.4819 35.5848 19.7515C35.6467 21.1243 35.6622 21.532 35.6622 25.0052C35.6622 28.4784 35.6467 28.8861 35.5848 30.2588C35.528 31.5284 35.3164 32.2148 35.1358 32.6741C34.8984 33.2831 34.6197 33.7166 34.1656 34.1707C33.7114 34.6249 33.2779 34.9087 32.6689 35.1409C32.2096 35.3164 31.5232 35.5331 30.2537 35.5899C28.8809 35.6518 28.4732 35.6673 25 35.6673C21.5268 35.6673 21.1191 35.6518 19.7463 35.5899C18.4768 35.5331 17.7904 35.3216 17.3311 35.1409C16.7221 34.9035 16.2886 34.6249 15.8345 34.1707C15.3803 33.7166 15.0965 33.2831 14.8642 32.6741C14.6888 32.2148 14.472 31.5284 14.4152 30.2588C14.3533 28.8861 14.3378 28.4784 14.3378 25.0052C14.3378 21.532 14.3533 21.1243 14.4152 19.7515C14.472 18.4819 14.6836 17.7956 14.8642 17.3362C15.1016 16.7273 15.3803 16.2938 15.8345 15.8396C16.2886 15.3855 16.7221 15.1016 17.3311 14.8694C17.7904 14.6939 18.4768 14.4772 19.7463 14.4204C21.1191 14.3533 21.532 14.343 25 14.343ZM25 12C21.47 12 21.0262 12.0155 19.638 12.0774C18.2549 12.1393 17.3104 12.3613 16.4847 12.6812C15.628 13.0115 14.9055 13.4605 14.183 14.183C13.4605 14.9055 13.0167 15.6332 12.6812 16.4847C12.3613 17.3104 12.1393 18.2549 12.0774 19.6431C12.0155 21.0262 12 21.47 12 25C12 28.53 12.0155 28.9738 12.0774 30.362C12.1393 31.7451 12.3613 32.6896 12.6812 33.5204C13.0115 34.3771 13.4605 35.0996 14.183 35.8222C14.9055 36.5447 15.6332 36.9885 16.4847 37.3239C17.3104 37.6439 18.2549 37.8658 19.6431 37.9277C21.0314 37.9897 21.47 38.0052 25.0052 38.0052C28.5403 38.0052 28.979 37.9897 30.3672 37.9277C31.7503 37.8658 32.6947 37.6439 33.5256 37.3239C34.3823 36.9937 35.1048 36.5447 35.8273 35.8222C36.5498 35.0996 36.9937 34.372 37.3291 33.5204C37.6491 32.6947 37.871 31.7503 37.9329 30.362C37.9949 28.9738 38.0103 28.5351 38.0103 25C38.0103 21.4649 37.9949 21.0262 37.9329 19.638C37.871 18.2549 37.6491 17.3104 37.3291 16.4796C36.9988 15.6229 36.5498 14.9004 35.8273 14.1778C35.1048 13.4553 34.3772 13.0115 33.5256 12.6761C32.6999 12.3561 31.7555 12.1342 30.3672 12.0723C28.9738 12.0155 28.53 12 25 12Z" fill="white"/>
<path d="M24.9998 18.3271C21.315 18.3271 18.3218 21.3152 18.3218 25.0052C18.3218 28.6952 21.3099 31.6832 24.9998 31.6832C28.6898 31.6832 31.6779 28.6952 31.6779 25.0052C31.6779 21.3152 28.6898 18.3271 24.9998 18.3271ZM24.9998 29.3351C22.6052 29.3351 20.6648 27.3946 20.6648 25C20.6648 22.6054 22.6052 20.665 24.9998 20.665C27.3944 20.665 29.3349 22.6054 29.3349 25C29.3349 27.3946 27.3944 29.3351 24.9998 29.3351Z" fill="white"/>
<path d="M31.9409 19.6171C32.8016 19.6171 33.4994 18.9193 33.4994 18.0586C33.4994 17.1978 32.8016 16.5 31.9409 16.5C31.0801 16.5 30.3823 17.1978 30.3823 18.0586C30.3823 18.9193 31.0801 19.6171 31.9409 19.6171Z" fill="white"/>
</svg>
