<svg width="90" height="42" viewBox="0 0 90 42" fill="none" xmlns="http://www.w3.org/2000/svg">
<path d="M40.95 4C38.2162 4 36 6.18832 36 8.88862C36 11.7187 37.6321 14.3887 40.3312 16.8331C41.2525 17.6668 42.2444 18.3983 43.2281 19.0552C43.5729 19.2845 43.8953 19.4925 44.1844 19.6658C44.3606 19.7716 44.4768 19.848 44.55 19.888C44.8218 20.0373 45.1782 20.0373 45.45 19.888C45.5232 19.848 45.6394 19.7716 45.8156 19.6658C46.1047 19.4925 46.4271 19.2845 46.7719 19.0552C47.7556 18.3983 48.7475 17.6668 49.6687 16.8331C52.3678 14.3887 54 11.7187 54 8.88862C54 6.18832 51.7838 4 49.05 4C47.4973 4 45.9814 4.83552 45.0281 6.05501C44.0986 4.81419 42.5879 4 40.95 4Z" fill="#5A5F76"/>
<path d="M32.4668 31.2656C32.4668 32.1035 32.666 33.1816 33.3809 33.9492C34.0781 33.1934 34.2598 32.127 34.2715 31.2656V31.1719H33.6035V30.1289H36.6504V31.1719H35.5137V31.2656C35.5137 32.4023 35.9238 33.7266 37.1309 34.3359L36.4512 35.2852C35.6602 34.8633 35.1738 34.166 34.9043 33.3516C34.6406 34.1895 34.1836 34.9453 33.3809 35.4023C32.5898 34.9512 32.127 34.2012 31.8691 33.3867C31.5879 34.1895 31.1016 34.8809 30.3223 35.2852L29.6309 34.3359C30.8262 33.7031 31.2598 32.3906 31.2598 31.2656V31.1719H30.0293V30.1289H33.1465V31.1719H32.4668V31.2656ZM38.7949 29.4492V35.625H37.4941V29.4492H38.7949ZM38.7949 36.1523V39.9141H31.5527V36.1523H38.7949ZM32.8418 37.1719V38.8594H37.5293V37.1719H32.8418ZM48.5918 29.8828V33.5625H45.6387V34.6758H49.8223V35.7305H40.166V34.6758H44.3262V33.5625H41.3848V29.8828H48.5918ZM42.6504 30.9023V32.5312H47.3027V30.9023H42.6504ZM48.6387 36.6211V40.043H47.3379V37.6523H41.2324V36.6211H48.6387ZM60.2051 35.1797V36.2344H50.5254V35.1797H54.7207V34.3008H51.7559V31.4883H57.709V30.7031H51.7207V29.6836H59.0098V32.4375H53.0449V33.2812H59.2207V34.3008H56.0098V35.1797H60.2051ZM59.0684 36.9023V39.9727H57.7559V37.9336H51.6035V36.9023H59.0684Z" fill="#5A5F76"/>
</svg>
